<?xml version="1.0" encoding="UTF-8"?>
<svg id="Layer_2" data-name="Layer 2" xmlns="http://www.w3.org/2000/svg" width="200.22" height="117.03" xmlns:xlink="http://www.w3.org/1999/xlink" viewBox="0 0 200.22 117.03">
  <defs>
    <style>
      .cls-1 {
        fill: #f05057;
      }

      .cls-1, .cls-2, .cls-3, .cls-4, .cls-5, .cls-6, .cls-7, .cls-8, .cls-9, .cls-10, .cls-11, .cls-12, .cls-13, .cls-14, .cls-15, .cls-16, .cls-17, .cls-18, .cls-19, .cls-20, .cls-21, .cls-22, .cls-23, .cls-24, .cls-25, .cls-26, .cls-27, .cls-28, .cls-29, .cls-30, .cls-31, .cls-32, .cls-33, .cls-34, .cls-35, .cls-36, .cls-37, .cls-38, .cls-39, .cls-40, .cls-41, .cls-42, .cls-43, .cls-44, .cls-45, .cls-46, .cls-47, .cls-48, .cls-49, .cls-50, .cls-51, .cls-52, .cls-53, .cls-54, .cls-55, .cls-56, .cls-57, .cls-58, .cls-59, .cls-60 {
        stroke-width: 0px;
      }

      .cls-2 {
        fill: #bd1831;
      }

      .cls-3 {
        fill: #86a3a6;
      }

      .cls-4 {
        fill: #e4282d;
      }

      .cls-5 {
        fill: #2d2125;
      }

      .cls-6 {
        fill: #3884ac;
      }

      .cls-7 {
        fill: url(#linear-gradient);
      }

      .cls-8 {
        fill: #cee2e4;
      }

      .cls-9 {
        fill: #277496;
      }

      .cls-10 {
        fill: #25617a;
      }

      .cls-11 {
        fill: #fcc1a7;
      }

      .cls-12 {
        fill: #5e2b2b;
      }

      .cls-13 {
        fill: #0c2333;
      }

      .cls-14 {
        fill: #c5f5fc;
      }

      .cls-15 {
        fill: #24516e;
      }

      .cls-16 {
        fill: #a41428;
      }

      .cls-17 {
        fill: #e18c89;
      }

      .cls-18 {
        fill: #80c0cf;
      }

      .cls-19 {
        fill: #d2d8df;
      }

      .cls-20 {
        fill: #13394e;
      }

      .cls-21 {
        fill: #dd3d4c;
      }

      .cls-22 {
        fill: #9dd0db;
      }

      .cls-23 {
        fill: #854858;
      }

      .cls-24 {
        fill: #7d7f8c;
      }

      .cls-25 {
        fill: #0e7386;
      }

      .cls-26 {
        fill: #5896a5;
      }

      .cls-27 {
        fill: #a2aab1;
      }

      .cls-28 {
        fill: url(#linear-gradient-2);
      }

      .cls-29 {
        fill: #11181a;
      }

      .cls-30 {
        fill: #34d4e6;
      }

      .cls-31 {
        fill: #5c4544;
      }

      .cls-32 {
        fill: #59778f;
      }

      .cls-33 {
        fill: #95bbc8;
      }

      .cls-34 {
        fill: #f99d9e;
      }

      .cls-35 {
        fill: url(#linear-gradient-3);
      }

      .cls-36 {
        fill: #252526;
      }

      .cls-37 {
        fill: #072340;
      }

      .cls-38 {
        fill: #5f5c69;
      }

      .cls-39 {
        fill: #babfc2;
      }

      .cls-40 {
        fill: #f16e6d;
      }

      .cls-41 {
        fill: #1b1714;
      }

      .cls-42 {
        fill: #ae465a;
      }

      .cls-43 {
        fill: #403138;
      }

      .cls-44 {
        fill: #858e9a;
      }

      .cls-45 {
        fill: #b6aeb3;
      }

      .cls-46 {
        fill: #da788e;
      }

      .cls-47 {
        fill: #292933;
      }

      .cls-48 {
        fill: #3a3a4b;
      }

      .cls-49 {
        fill: #b83148;
      }

      .cls-50 {
        fill: #534f58;
      }

      .cls-51 {
        fill: #c5bfba;
      }

      .cls-52 {
        fill: #2f373d;
      }

      .cls-53 {
        fill: url(#linear-gradient-4);
      }

      .cls-54 {
        fill: #4b505c;
      }

      .cls-55 {
        fill: #f3f6fb;
      }

      .cls-56 {
        fill: #6b6f7e;
      }

      .cls-57 {
        fill: #805c65;
      }

      .cls-58 {
        fill: #7c6975;
      }

      .cls-59 {
        fill: #a79e9c;
      }

      .cls-60 {
        fill: #e6b2b5;
      }
    </style>
    <linearGradient id="linear-gradient" x1="-202.58" y1="472.38" x2="-277.02" y2="503.91" gradientTransform="translate(652.31 298.61) rotate(90)" gradientUnits="userSpaceOnUse">
      <stop offset="0" stop-color="#22a3bb"/>
      <stop offset=".2" stop-color="#45c1d0"/>
      <stop offset=".88" stop-color="#b2e3e7"/>
    </linearGradient>
    <linearGradient id="linear-gradient-2" x1="-238.45" y1="602.7" x2="-239.91" y2="614.04" gradientTransform="translate(652.31 298.61) rotate(90)" gradientUnits="userSpaceOnUse">
      <stop offset="0" stop-color="#2d5f76"/>
      <stop offset="1" stop-color="#204359"/>
    </linearGradient>
    <linearGradient id="linear-gradient-3" x1="-263.02" y1="504.14" x2="-220.78" y2="536.56" gradientTransform="translate(652.31 298.61) rotate(90)" gradientUnits="userSpaceOnUse">
      <stop offset="0" stop-color="#b5abac"/>
      <stop offset="1" stop-color="#887179"/>
    </linearGradient>
    <linearGradient id="linear-gradient-4" x1="-265.16" y1="538.2" x2="-215.95" y2="599.14" gradientTransform="translate(652.31 298.61) rotate(90)" gradientUnits="userSpaceOnUse">
      <stop offset="0" stop-color="#40cad6"/>
      <stop offset=".45" stop-color="#209bb3"/>
      <stop offset=".66" stop-color="#1f8ea8"/>
      <stop offset="1" stop-color="#3bacbd"/>
    </linearGradient>
  </defs>
  <g id="Layer_1-2" data-name="Layer 1">
    <g>
      <path class="cls-12" d="M192.64,87.67c-6.3-.74-5.38.36-7.25,5.02.04-.15-.05-.41,0-.56.44-1.39.83-2.88,1.12-4.32.24-.43.51-.65.84-.98l5.3-1.39s.56.58.56.7c-.03.86-.51,1.23-.56,1.53Z"/>
      <g>
        <path class="cls-9" d="M136.33,19.37c-5.31-2.65-18.78-2.47-25.09-2.79-16.25-.82-25.78-.79-42.09.28l-.28-2.23c8.93.12,17.85-.14,26.76-.84,1.3-.01,2.6,0,3.9,0,5.19.99,11.51.55,17,.56,4.32,0,8.63.49,12.96.28.31-.32.57-.62.98-.84,1.1,1.2,2.9.26,3.07.28.03,0,.21.54.42.56,7.6.47,31.91.18,36.66,1.12.56.3,2.11,1.09,2.23,1.12-6.23,1.15-31.71-.63-34.15,0-.17.04-2.49,1.89-2.37,2.51Z"/>
        <path class="cls-56" d="M68.87,14.63c-4.11-.59-8.41-.8-12.54-.84-7.99-.08-15.94.11-23.83,1.12-1.43.18-1.42-.66-2.23-.56-1.16.84-2.42,1.23-3.76,1.67,1.07-.95,2.35-1.39,3.62-1.95,1.43-.62,3.03-.96,4.32-1.95,4.22-.61,8.55-1.79,12.82-1.95,1.43-.05,1.72.56,1.81.56.13.59-.53,1.13.14,1.39,1.73.68,35.23-.65,37.08,0,.08.03.68,1.28,1.12,1.39,1.14.29,6.42.29,8.22.28-8.91.69-17.83.96-26.76.84Z"/>
        <path class="cls-24" d="M99.53,13.8c-1.3,0-2.6-.01-3.9,0-1.81.01-7.09,0-8.22-.28-.44-.11-1.03-1.36-1.12-1.39-1.85-.65-35.35.68-37.08,0-.67-.26,0-.81-.14-1.39,10.06-.34,39.92-.8,48.09-.28,5.17.33,10.29,1.65,15.47,2.23,1.86,1.74-6.82.48-9.9.28-.78.26-2.74.83-3.21.84Z"/>
        <path class="cls-52" d="M197.93,81.54c-.54-.03-.93.39-1.39.56-.14.05-.44-.05-.56,0,3.47-10.88,3.3-31.2.56-42.37.51.2,1.12.32,1.67.28.39,3.34,1.45,7.61,1.67,10.73.74,10.25.3,20.8-1.95,30.8Z"/>
        <path class="cls-29" d="M130.47,13.8c-.41.22-.66.51-.98.84-4.33.21-8.64-.27-12.96-.28.62-1.6,0-1.59,0-1.67.12-2.19.14-9.15.56-10.45.68-2.14,3.82-3.24,4.74-.98-.37-.02-.75.02-1.12,0-.86-.06-1.06-.41-1.39.14.84,5.86-1.63,10.16,1.39,9.34h.28c-.07.4-.06,2.92.14,3.07.25.18,5.83.07,6.13,0,.37-.08,3.42-2.37,6.69-3.35-.48.99-2.61,2.88-3.48,3.35Z"/>
        <g>
          <path class="cls-4" d="M195.42,37.77c-.89-.35-8.04-4.03-8.36-4.46-.1-.66.28-.53.28-.56l5.99,1.95c.45-.72-.13-1.18-.14-1.39-.12-1.85-1.04-6.08-1.67-7.81-.84-2.29-2.16-5.17-4.6-6.13-.6-.24-10.24-1.76-12.68-2.23.16-.9-.31-1.29-.28-1.39.11-.4,1.69-.4.28-2.51,2.87.56,11.11.47,16.31,4.46,5.49,4.21,5.59,13.8,6.27,20.07-.36-.11-1.1.12-1.39,0Z"/>
          <path class="cls-8" d="M198.21,38.33c-.93.14-1.32-.54-1.39-.56-.68-6.27-.78-15.86-6.27-20.07-5.2-3.99-13.44-3.9-16.31-4.46-.37-.07-.35-.49-.7,0v-.56c2.49-.72,11.91,1.56,14.5,2.79,2.1,1,3.48,3.05,5.71,3.48,3.77,5.83,3.59,12.76,4.46,19.37Z"/>
        </g>
        <path class="cls-15" d="M4.47,24.11c-.14,1.6.29,1.59.28,1.67-.28,3.54-.37,7.06-.56,10.59-.03-8.69-2.01-5.95-3.35,1.12-.15-.99-.96-1.85-.84-2.93,2.34-3.46,1.59-4.75,1.67-5.02.41-1.37,2.26-6.61,3.07-7.39-.1.55-.23,1.41-.28,1.95Z"/>
        <g>
          <path class="cls-56" d="M133.54,13.8c-.46-.07-.35-1.53-.14-1.67,1.41-1,30.55.31,34.57,1.39.67.33,1.58,1.21,2.09,1.39v.28c-3.7-1.45-29.85-.22-36.52-1.39Z"/>
          <path class="cls-15" d="M133.54,14.08v-.28c6.66,1.18,32.82-.06,36.52,1.39.04.01.53.43.56.56-4.75-.93-29.06-.64-36.66-1.12-.21-.01-.38-.55-.42-.56Z"/>
        </g>
        <path class="cls-52" d="M116.54,14.35c-5.49,0-11.81.43-17-.56.47,0,2.43-.58,3.21-.84,3.07.2,11.76,1.47,9.9-.28,1.05.12,2.87.71,3.9,0,0,.08.62.07,0,1.67Z"/>
        <path class="cls-14" d="M121,10.73h-.28V1.25c.37.02.74-.02,1.12,0,.31.77.13,7.85,0,9.06-.03.29-.74-.09-.84.42Z"/>
        <path class="cls-29" d="M198.21,40c-.55.05-1.17-.08-1.67-.28-.83-.33-3-1.45-1.12-1.95.29.12,1.03-.11,1.39,0,.07.02.47.7,1.39.56.06.46.47.02.56.7,0,.06-.58.76-.56.98Z"/>
        <path class="cls-31" d="M174.24,17.14c-.46-.09-.93-.18-1.39-.28-.12-.03-1.67-.82-2.23-1.12-.03-.13-.52-.54-.56-.56v-.28c.99.36,3.22.84,3.9.84-.03.1.44.49.28,1.39Z"/>
        <path class="cls-13" d="M117.65,116.38c.14-1.27-.27-1.06-.28-1.12-.42-2.44-.4-4.35-.56-6.69.63,2.81,2.09,2.14,2.23.98.05-.4-1.64-2.47.84-2.65l.84,8.22c.19.3,1.06.05,1.12.14,1.49,2.19-1.11,1.75-3.76,1.67-.22,0,0-.56-.42-.56Z"/>
        <path class="cls-30" d="M122.67,114.15l-.84,1.12c-.06-.09-.92.16-1.12-.14l-.84-8.22c.18-.01.47-.03.56,0,1.61.62,1.89,6.41,2.23,7.25Z"/>
        <path class="cls-44" d="M101.2,104.67l-8.36.28c-17.48-1.11-40.19.14-56.59-.84-1.17-.07-3.08-.72-3.35-.28-1.1-.46-3.04-1.19-3.07-.84-.71-.46-2.02-.82-2.51-1.67,1.01.19,7.98.46,8.5.28.18-.21.23-.64.42-.84.04-.05.22-.47.28-.56.4.6.21.96.84.84-.53,1.6,1.43-.19,2.23-.56,2.15-.99,4.43-1.74,6.41-3.07.95,2.43,11.78,3.33,14.63,3.62,12.27,1.26,29.52,1.52,41.95,1.12l-1.39,2.51Z"/>
        <path class="cls-41" d="M120.44,106.9c-.09-.03-.38-.01-.56,0-2.48.18-.79,2.24-.84,2.65-.14,1.16-1.6,1.84-2.23-.98-.07-1.04-.26-1.99-.28-3.07-.01-.74.01-1.49,0-2.23,1.64-.11,2.83.02,3.07,0,.21,1.41,2.32,3.59.84,3.62Z"/>
        <path class="cls-54" d="M36.25,105.51c-1.1-.62-2.17-1.18-3.35-1.67.26-.44,2.18.21,3.35.28-.06.44.09,1.25,0,1.39Z"/>
        <path class="cls-54" d="M128.24,103.28c-.41-.18-1-.36-1.12-.84.15,0,1.09-.49,3.07-.28,1.38.82,1.8,2.06,1.95,2.23-1.11.78-1.83-.19-3.9-1.12Z"/>
        <path class="cls-9" d="M.85,88.23c-.2-.42-.53-.66-.84-.98.53-.64.73-1.27.84-2.09v3.07Z"/>
        <path class="cls-32" d="M69.15,16.86c-4.7.31-9.26.42-13.94,1.12-.86-.53-3.05-.19-3.76.28-2.63-3.14,8.62-3.29,4.88-4.46,4.14.04,8.43.25,12.54.84l.28,2.23Z"/>
        <path class="cls-20" d="M111.24,16.86v-.28c6.31.32,19.78.14,25.09,2.79.39.19.26.27.28.28q-9.27-.56-18.54-1.12c-1.98-.77-5.91-.06-6.83-1.67Z"/>
        <path class="cls-32" d="M55.21,17.98c-1.34.2-2.86.26-4.18.56l-8.92.28c-.32-.21-.97-1.32-2.51,0-.23-.2-1.18-1.08-1.25-1.12-.33-.13-.51.61-1.25,0-.01-.02-.07,0-.28-.28-.08-.11.15-.7-.14-.84-1.25,0-2.51,0-3.76,0-8.06.05-13.41,3.83-14.36,3.9-.62.05-.24-.51-.7-.56,2.88-1.71,5.47-2.84,8.64-3.9,1.34-.45,2.6-.83,3.76-1.67.81-.1.8.74,2.23.56,7.89-1.01,15.85-1.19,23.83-1.12,3.75,1.17-7.51,1.32-4.88,4.46.71-.46,2.9-.81,3.76-.28Z"/>
        <g>
          <path class="cls-9" d="M185.39,92.69c-.72,2.42-1.37,4.87-2.23,7.25-2.49.53-5.58,1.12-8.08,1.39-1.17.13-3.06,0-3.76.84h-41.12c-1.98-.21-2.91.27-3.07.28-3.68.22-6.6.77-7.53.84-.24.02-1.42-.11-3.07,0-5.12.34-10.17,1.55-15.33,1.39l1.39-2.51c10.84-.36,21.63-1.12,32.34-3.07,2.06.26,4.35.5,6.41.56,5.18.16,33.12.58,35.54.28.3-.04,2.19-1.33,5.85-1.12l2.65-6.69c-.05.14.04.41,0,.56Z"/>
          <path class="cls-8" d="M184.55,21.32c-.39-.07-.26-.28-.28-.28-7.65-1-35.48.4-45.72,0-.59-.57-1.24-.98-1.95-1.39-.02,0,.11-.09-.28-.28-.12-.62,2.2-2.47,2.37-2.51,2.44-.63,27.92,1.15,34.15,0,.46.1.93.19,1.39.28,2.44.47,12.08,1.99,12.68,2.23,2.44.96,3.76,3.84,4.6,6.13-2.97-3.3-2.77-3.42-6.97-4.18Z"/>
          <path class="cls-7" d="M195.98,82.09c-2.27,1-3.17,2.14-3.35,2.23-1.49.78-4.24,1.43-5.3,2.51-.32.33-.6.54-.84.98-.28,1.44-.68,2.93-1.12,4.32l-2.65,6.69c-3.66-.21-5.55,1.08-5.85,1.12-2.43.3-30.36-.12-35.54-.28.83-1.82-1.37-3.03-2.23-4.46,11.06-15.24,10.35-63.48-.56-74.15,10.23.4,38.07-1,45.72,0-.29,2.4.95,5.7,1.67,8.08.31,1.04.29,3.13,1.12,4.18.32.43,7.48,4.11,8.36,4.46-1.88.5.28,1.62,1.12,1.95,2.75,11.17,2.91,31.49-.56,42.37Z"/>
        </g>
        <g>
          <path class="cls-4" d="M196.26,84.88c-.87,9.26-1.53,16.46-11.85,19.23-1.35.36-11.38,2.2-11.29.84.83-.9,1.32-2.51,1.95-3.62,2.51-.27,5.6-.87,8.08-1.39,4.85-1.03,5.72.25,7.81-5.16.56-1.46,1.38-5.37,1.67-7.11.05-.3.52-.68.56-1.53,0-.12-.55-.65-.56-.7-.03-.12.35-.23,0-1.12.18-.09,1.07-1.23,3.35-2.23.12-.05.42.05.56,0,.2,1.84-.27,2.65-.28,2.79Z"/>
          <path class="cls-55" d="M196.26,84.88c.01-.14.48-.95.28-2.79.46-.17.86-.58,1.39-.56-.05.22,1.08,3.33-1.67,3.35Z"/>
          <path class="cls-17" d="M192.64,85.44l-5.3,1.39c1.05-1.08,3.81-1.73,5.3-2.51.35.89-.03.99,0,1.12Z"/>
        </g>
        <path class="cls-25" d="M120.72,10.73c-3.03.82-.55-3.48-1.39-9.34.34-.55.53-.19,1.39-.14v9.48Z"/>
        <path class="cls-22" d="M49.08,87.11q-1.67,1.95-3.35,3.9c-.48.31-.53.53-.56.56-2.51,2.04-5.31,6.9-7.81,9.48-.63.12-.44-.24-.84-.84.9-1.18,1.83-3.46,1.95-3.62,2.75-3.88,6.22-7.24,8.92-11.15.15-.1.38-.23.56-.28l1.12,1.95Z"/>
        <path class="cls-58" d="M45.73,94.08c.03.18-.03.38,0,.56l-6.13,5.85c-.8.37-2.76,2.16-2.23.56,2.49-2.58,5.3-7.44,7.81-9.48-.23,1.1.49,1.3.56,1.67.05.26-.04.57,0,.84Z"/>
        <path class="cls-33" d="M46.01,97.43c-1.99,1.33-4.26,2.07-6.41,3.07l6.13-5.85c.18,1.11.27.79.28.84.13.54-.14,1.6,0,1.95Z"/>
        <path class="cls-14" d="M141.34,99.66c-2.06-.06-4.35-.3-6.41-.56.52-.19.94-.54,1.39-.84.87-.58,2.15-2.19,2.79-3.07.86,1.43,3.06,2.64,2.23,4.46Z"/>
        <path class="cls-29" d="M139.11,95.19c-.64.88-1.92,2.49-2.79,3.07l-1.95-1.39v-.28c.22.08.32-.34.56-.28.63.16.62-.32.7-.28.81.45.66,1.32.84,1.39.83.36,9.51-12.69,5.99-15.75-.06-1.72,1.34-4.74.56-6.27,1.57-12.23,2.49-45.03-7.25-53.94-1.82-1.66-1.39-.84-5.02.42-3.02,1.05-5.9,2.57-8.92,3.62-1.29-.19-1.05-.56-1.12-.56l9.2-3.48c-2.34-.83-4.41-.16-6.69.14-.42-.77,1.03-.78-.98-1.12-5.23-.87-11.55-.74-6.69.56.5.13.99-.46,1.67-.28,1.5,2.07,2.26.64,3.48,1.39-1.33.19-2.22.6-3.62.28-1.17-.27-5.25-3.13-6.97-3.9.02-.02.21-.45.28-.56.21-.32.55-.49.84-1.12.92,1.62,4.85.9,6.83,1.67q9.27.56,18.54,1.12c.71.41,1.36.82,1.95,1.39,10.91,10.67,11.62,58.91.56,74.15Z"/>
        <g>
          <path class="cls-51" d="M193.19,33.31c.67-1.28-6.54-4.4-6.97-4.46-.61-2.49-1.41-4.97-1.67-7.53,4.2.76,4,.88,6.97,4.18.63,1.72,1.56,5.95,1.67,7.81Z"/>
          <path class="cls-59" d="M187.34,32.75c0-.2-.91-3.09-1.12-3.9.43.06,7.64,3.18,6.97,4.46.01.21.59.68.14,1.39l-5.99-1.95Z"/>
          <path class="cls-56" d="M187.06,33.31c-.82-1.06-.8-3.15-1.12-4.18-.03-.21.07-.31.28-.28.2.81,1.11,3.7,1.12,3.9,0,.03-.38-.11-.28.56Z"/>
          <path class="cls-44" d="M186.23,28.85c-.21-.03-.31.07-.28.28-.72-2.38-1.96-5.69-1.67-8.08.02,0-.11.21.28.28.26,2.56,1.06,5.04,1.67,7.53Z"/>
        </g>
        <path class="cls-27" d="M44.89,21.6h-.28c-.29-.37-2.35-2.69-2.51-2.79l8.92-.28c-1.93.44-5.46,1.1-6.13,3.07Z"/>
        <path class="cls-18" d="M46.85,29.96c-.09.01-.19,0-.28,0-2.79-3.6-5.9-6.95-8.64-10.59-.88-1.17-.78-1.59-.84-1.67.74.61.92-.13,1.25,0,.08.03,1.02.91,1.25,1.12,1.79,1.56,8.06,10.35,9.48,10.59.34-.14.36-.29.84-.28.03.69-2.14.72-3.07.84Z"/>
        <path class="cls-23" d="M49.08,29.41c-1.42-.24-7.69-9.03-9.48-10.59,1.54-1.32,2.19-.21,2.51,0,.16.1,2.22,2.42,2.51,2.79.03.04-.14.27.28.84.63.84,1.36,1.91,1.95,2.79.76,1.14,1.07,1.32,1.12,1.39.27.41,1.1,2.2,1.12,2.79Z"/>
        <g>
          <path class="cls-10" d="M36.25,100.77c-3.59.69-6.21-4.69-7.25-7.67-.79-2.26-3.25-15.53-4.18-20.07-.56-2.74-.79-14.49-4.6-8.22-11.28.25-13.1,10.78-14.36,2.93-.32-2.02.5-10.16-.56-4.04-.15-3.21-.56-2.37-.56-2.51,0-.11.47-.7.28-2.23.95-5.96.42-12.17,1.39-18.12,0-.03.14.22.28-.56.01-.06.06.04.28-1.12.03-.18-.02-.38,0-.56.47,0,.2-.49.28-.84.01-.04.04.16.28-.84.83-3.49,1.89-7.43,3.62-10.59.18-.33,1.57-2.66,1.67-2.79,1.37-1.7,3.23-2.56,5.02-3.62.45.04.07.6.7.56.94-.07,6.3-3.85,14.36-3.9-3.77,5.11-4.99,11.49-5.85,17.7-.61,4.35-1.9,22.2-1.39,25.65.02.11,1.31.32,0,.84,1.81.21.16,1.63.28,4.46.22,5.24,1.35,4.47,1.39,4.74.44,2.53.63,5.12,1.12,7.67.63,3.31.24,3.31.28,3.48.05.24.55.38.56.42,1.25,5.73,1.31,13.14,6.13,17,.18.71.78,1.17,1.12,1.67-.06.08-.23.51-.28.56Z"/>
          <path class="cls-9" d="M27.33,101.33c-4.92-.91-13.2-5.83-16.17-11.15-.97-1.74-1.48-3.72-2.51-5.44q-.56-2.79-1.12-5.58c-1.44-2.93-1.04-7.73-2.23-10.87-.05-1.53.07-3.07,0-4.6,1.06-6.11.23,2.02.56,4.04,1.26,7.85,3.07-2.68,14.36-2.93,3.81-6.26,4.04,5.49,4.6,8.22.93,4.54,3.39,17.81,4.18,20.07,1.04,2.98,3.65,8.35,7.25,7.67-.19.2-.24.63-.42.84-.52.18-7.49-.09-8.5-.28Z"/>
          <path class="cls-15" d="M36.81,17.42c-2.4,1.95-.62,8.08-.56,11.57.16,9.75-.57,19.53-.56,29.27.02,12.54.95,25.09.28,37.63-1.91-23.27-1.17-46.67-.28-69.97-2.48.39-4.06,7.14-4.46,9.34-.3-.03-1.64.89-1.67.98-.67,1.6-1.47,24.12-1.39,27.6,0,.05.56.79.56.84.13,4.43.82,12.27-.28,12.96-.49-2.55-.67-5.14-1.12-7.67-.05-.26-1.18.5-1.39-4.74-.12-2.83,1.53-4.25-.28-4.46,1.31-.52.02-.73,0-.84-.5-3.44.79-21.29,1.39-25.65.86-6.21,2.09-12.59,5.85-17.7,1.25,0,2.51,0,3.76,0,.29.13.06.73.14.84Z"/>
          <path class="cls-20" d="M29.28,81.54s-.51-.18-.56-.42c-.04-.17.35-.18-.28-3.48,1.1-.69.41-8.53.28-12.96,0-.05-.56-.79-.56-.84-.07-3.48.72-26,1.39-27.6.04-.09,1.37-1,1.67-.98-1.85,10.12-1.84,39.74.56,49.62-2.12,2.06-1.45-4.31-2.51-3.35Z"/>
          <path class="cls-15" d="M35.42,98.54c-4.83-3.86-4.88-11.27-6.13-17,1.06-.96.39,5.4,2.51,3.35,1.31,5.4,2.96,7.27,3.07,7.67.42,1.53.28,4.91.56,5.99Z"/>
        </g>
        <g>
          <path class="cls-4" d="M30.12,14.08c-1.28.56-2.55,1-3.62,1.95-3.17,1.06-5.76,2.19-8.64,3.9-1.79,1.07-3.65,1.92-5.02,3.62l-3.76.28c-.35-.32.21-.11.42-.56,1.03-2.27,3.09-3.99,4.32-6.13-2.2,1.5-3.67,3.97-5.16,6.13-.38.08-1.59.55-1.67.56-.63.08-1.38.08-1.95-.28,1.91-4.83,3.27-8.18,8.92-9.76-.63,1.43-4.53,1.2-1.81,3.07,2.09-1.73,1.82-.54,1.95-.56,2.36-.35,4.65-1.28,6.97-1.67,4.18-.71,13.93-.83,6.27-1.95,1.72-.09,3.46-.27,5.16-.56v.56l-2.37,1.39Z"/>
          <path class="cls-21" d="M13.95,13.8c3.62-1.01,9.43-.92,13.38-1.12,7.65,1.12-2.09,1.24-6.27,1.95-2.32.4-4.61,1.32-6.97,1.67-.13.02.14-1.17-1.95.56-2.72-1.87,1.19-1.64,1.81-3.07Z"/>
          <path class="cls-11" d="M5.59,24.95c-.36.28-.54.52-.84.84,0-.08-.42-.07-.28-1.67.77.11.47-.34.56-.56.58.36,1.32.36,1.95.28-.27.58-.93.75-1.39,1.12Z"/>
          <path class="cls-17" d="M33.19,105.51c-.39-.03-.67-.21-1.39-.28-1.4-.13-2.8-.45-4.18-.56-3.85-.31-7.7-.67-11.57-.56-.23-.15-1.19-.54-1.25-.56,2.75.35,12.69.89,10.04-.28,1.98.4,5.09,1.23,6.69.84,1.43.83,1.86.42,1.67,1.39Z"/>
          <path class="cls-39" d="M8.65,101.33c-.4-.28-.7-.19-1.12-.56-.43-.38-2.1-2.71-2.51-3.35-.12-1.03-.42-2.03-.56-3.07h.56c.29,2.29,1.88,4.91,3.62,6.41v.56Z"/>
          <path class="cls-45" d="M33.19,105.51c.19-.97-.25-.56-1.67-1.39-.61-.35-1.1-.75-1.67-1.12.03-.35,1.97.38,3.07.84,1.17.49,2.24,1.05,3.35,1.67-.17.29-2.55.03-3.07,0Z"/>
          <path class="cls-60" d="M8.65,101.33v-.56c.69.59,1.71.98,2.51,1.39,1.12.58,2.41,1.13,3.62,1.39-3.11-.4-3.46-.35-6.13-2.23Z"/>
          <path class="cls-38" d="M27.61,104.67c1.38.11,2.78.43,4.18.56-.84.6-4.29.24-4.18-.56Z"/>
          <path class="cls-20" d="M4.47,89.9c.04,1.08-.28,1.06-.28,1.12l-2.23-1.39c-.23-.3-.99-1.13-1.12-1.39v-3.07c.04-.3.55-.92.56-.98.56-5.79-.78-11.77-.84-17.56-.05-5.45.18-10.86.28-16.31.29,3.22,1.16,1.95,1.39,2.37.43.75-.38,15.1,0,17.28.52-9.07.79.71,1.12,3.76.3,2.81.65,5.54.84,8.36.16,2.56.18,5.22.28,7.81Z"/>
          <path class="cls-13" d="M3.36,73.73c-.32-3.05-.6-12.84-1.12-3.76-.38-2.18.43-16.53,0-17.28-.24-.41-1.1.85-1.39-2.37.06-3.35.94-9.21.56-11.85-.01-.09-.44-.17-.56-.98,1.34-7.06,3.31-9.81,3.35-1.12-.68,12.44-1.43,24.89-.84,37.35Z"/>
          <path class="cls-46" d="M5.31,93.24c0,.06-.44-.14-.28,1.12h-.56c-.08-.58-.25-1.81-.28-2.23-.02-.37.02-.75,0-1.12,0-.06.32-.03.28-1.12.4,1.32.24,1.37,1.12,2.51-.93.38-.25.59-.28.84Z"/>
          <path class="cls-6" d="M4.19,92.13c-2.35-1.39-2.12-2.37-2.23-2.51l2.23,1.39c.02.37-.02.75,0,1.12Z"/>
          <path class="cls-4" d="M11.16,26.34c.62-1.61-3.98-.86-4.74-.56l-.84-.84c.46-.36,1.12-.54,1.39-1.12.09-.01,1.3-.47,1.67-.56.25-.06.57.03.84,0-.21.45-.76.24-.42.56l3.76-.28c-.1.13-1.49,2.45-1.67,2.79Z"/>
          <path class="cls-3" d="M9.49,23.27c-.27.03-.58-.06-.84,0,1.49-2.17,2.96-4.63,5.16-6.13-1.23,2.14-3.29,3.86-4.32,6.13Z"/>
          <path class="cls-49" d="M8.65,89.06c-.82-2.09-2.01-3.86-2.79-5.71-.77-1.84-.72-5.53-1.67-1.25-.18-2.83-.54-5.55-.84-8.36-.6-12.46.16-24.91.84-37.35.19-3.53.28-7.06.56-10.59.3-.32.48-.55.84-.84l.84.84c-.06.02-.16.34-1.12.42.43,1.77-1.22,13.09-.84,13.66.06.09,1.66.52,1.95.98-.97,5.94-.44,12.16-1.39,18.12-1.86-.31-1.98,1.74-.28,2.23,0,.14.41-.71.56,2.51.07,1.53-.05,3.07,0,4.6,1.19,3.14.79,7.94,2.23,10.87q.56,2.79,1.12,5.58c1.03,1.71,1.54,3.69,2.51,5.44l-2.51-1.12Z"/>
          <path class="cls-4" d="M24.82,103.28c-1.6-.33-3.17-.66-4.74-1.12-2.43-.7-5.43-1.37-7.25-3.35-1.07-1.16-1.81-3.61-1.95-3.76-1.68-1.8-1.24.67,1.67,4.04.32.37,1.04,1.11,1.39,1.39-1.61-.26-3.37.79-2.79,1.67-.8-.41-1.82-.8-2.51-1.39-1.74-1.5-3.34-4.12-3.62-6.41-.16-1.26.27-1.06.28-1.12l1.95,1.12c.31-.45,2.92-.34,3.07-.7.09-.23-1.44-4.02-1.67-4.6l2.51,1.12c2.97,5.32,11.24,10.24,16.17,11.15.49.85,1.8,1.22,2.51,1.67.57.37,1.07.76,1.67,1.12-1.61.4-4.71-.43-6.69-.84Z"/>
          <path class="cls-1" d="M14.79,103.56c-1.21-.26-2.51-.82-3.62-1.39-.58-.89,1.18-1.93,2.79-1.67,1.7,1.4,4.48,3.28,6.13,1.67,1.57.46,3.14.79,4.74,1.12,2.65,1.16-7.28.63-10.04.28Z"/>
          <path class="cls-16" d="M7.26,94.36c.36-1.19-1.17-1.3-1.67-1.95-.88-1.14-.71-1.19-1.12-2.51-.1-2.58-.11-5.24-.28-7.81.96-4.27.9-.59,1.67,1.25.78,1.85,1.97,3.62,2.79,5.71.23.58,1.77,4.37,1.67,4.6-.15.35-2.76.25-3.07.7Z"/>
          <path class="cls-34" d="M7.26,94.36l-1.95-1.12c.03-.25-.65-.46.28-.84.5.65,2.03.77,1.67,1.95Z"/>
          <path class="cls-2" d="M11.16,26.34c-1.73,3.16-2.79,7.1-3.62,10.59-.47,0-.2.49-.28.84-.01.04-.13-.28-.28.84-.02.18.03.38,0,.56l-.28,1.12c-.14.78-.27.53-.28.56-.29-.45-1.89-.89-1.95-.98-.39-.57,1.27-11.89.84-13.66.96-.08,1.06-.4,1.12-.42.76-.31,5.36-1.05,4.74.56Z"/>
          <path class="cls-13" d="M4.75,61.19c-1.71-.49-1.58-2.54.28-2.23.19,1.53-.28,2.12-.28,2.23Z"/>
          <path class="cls-42" d="M6.7,40.28l.28-1.12c-.22,1.15-.27,1.06-.28,1.12Z"/>
          <path class="cls-42" d="M7.26,37.77c.08-.35-.19-.84.28-.84-.24,1-.27.79-.28.84Z"/>
          <path class="cls-42" d="M6.98,38.61c.15-1.12.27-.79.28-.84-.08.35.19.84-.28.84Z"/>
          <path class="cls-40" d="M13.95,100.49c-.35-.29-1.08-1.03-1.39-1.39l.28-.28c1.81,1.97,4.82,2.64,7.25,3.35-1.66,1.61-4.43-.27-6.13-1.67Z"/>
          <path class="cls-26" d="M12.56,99.1c-2.91-3.37-3.35-5.84-1.67-4.04.14.15.88,2.6,1.95,3.76l-.28.28Z"/>
        </g>
        <g>
          <path class="cls-41" d="M136.33,98.26c-.45.3-.88.64-1.39.84-10.7,1.95-21.49,2.71-32.34,3.07-12.44.41-29.68.15-41.95-1.12-2.85-.29-13.69-1.19-14.63-3.62-.14-.35.13-1.42,0-1.95l.98.84c14.5.6,28.97,1.85,43.49,2.23,4.9.13,17.52-.82,18.4-.56.16.05.17.96,1.12,1.39,1.76-1.48,4.84,2.97,3.48.42-.06-.12-1.49-1.42-1.95-1.81v-.28c2.05-1.9,8.13-1.62,9.9.28l1.67.28c2.89-1.17,8.2-.06,10.45-.84.36-.12.48-.47.84-.56l1.95,1.39Z"/>
          <path class="cls-47" d="M46.01,95.47s-.1.27-.28-.84c-.03-.18.03-.38,0-.56,8.79,1.13,17.65,1.47,26.48,1.95,12.22.67,26.83,2.15,38.61,0-2.03,1.76.41,1.71.7,1.95.46.39,1.89,1.69,1.95,1.81,1.35,2.55-1.73-1.9-3.48-.42-.95-.43-.96-1.35-1.12-1.39-.88-.27-13.5.69-18.4.56-14.51-.38-28.98-1.63-43.49-2.23l-.98-.84Z"/>
          <path class="cls-54" d="M111.52,97.7v.28c-.29-.24-2.72-.19-.7-1.95-11.78,2.15-26.38.67-38.61,0,1.03-.82,2.91.58,2.51-1.39,12.19.58,31.29,2.58,41.26-.84l11.99,1.39c.16.08,1.94.43,3.35,1.39-4.79-.87-15.4-3.77-17.42-.56-.37-1.51-4.79,1.44-2.37,1.67Z"/>
          <path class="cls-52" d="M111.52,97.7c-2.42-.24,2-3.18,2.37-1.67,2.03-3.21,12.64-.32,17.42.56.77.14,1.67.17,2.23.84-2.25.78-7.57-.33-10.45.84l-1.67-.28c-1.76-1.9-7.84-2.18-9.9-.28Z"/>
          <path class="cls-43" d="M115.98,93.8l-1.25-1.67-8.64,1.12c-19.67-1.21-39.65.31-59.1-3.35-.48,1.25-1.18,1.07-1.25,1.12q1.67-1.95,3.35-3.9c9.18.44,62.79,3.92,66.07,3.07,2.33,2.78.27-3.14,3.35-1.39.07.04-.27.2,1.12,1.12.25.17,1.08,1.02,1.67,1.39-5.13,1.3.31,1.62,2.23,1.39,1.41.83,2.99,1.82,4.46,2.51l-11.99-1.39Z"/>
          <path class="cls-5" d="M74.72,94.64c-9.66-.46-19.32-1.08-28.99-1.39-.07-.38-.79-.57-.56-1.67.03-.02.08-.25.56-.56.07-.05.77.14,1.25-1.12,19.45,3.66,39.43,2.14,59.1,3.35l8.64-1.12,1.25,1.67c-9.97,3.42-29.06,1.42-41.26.84Z"/>
          <path class="cls-50" d="M72.21,96.03c-8.83-.49-17.7-.82-26.48-1.95-.04-.27.05-.57,0-.84,9.67.31,19.33.93,28.99,1.39.4,1.98-1.48.58-2.51,1.39Z"/>
          <g>
            <path class="cls-29" d="M38.2,93.52c-.11,2-.68,3.29.28,3.07-.12.17-1.05,2.45-1.95,3.62-.34-.51-.93-.96-1.12-1.67-.28-1.08-.13-4.46-.56-5.99-.11-.4-1.75-2.26-3.07-7.67-2.4-9.87-2.4-39.5-.56-49.62.4-2.2,1.98-8.95,4.46-9.34-.89,23.3-1.64,46.7.28,69.97.67-12.55-.26-25.09-.28-37.63-.02-9.74.72-19.52.56-29.27-.06-3.49-1.84-9.62.56-11.57.21.28.27.26.28.28.05.08-.04.5.84,1.67-.46,2.76.09,5.61.28,8.36,1.08,16.2.94,49.35,0,65.79Z"/>
            <path class="cls-28" d="M47.96,85.16c-.18.05-.41.18-.56.28-.08.05-1.03-.11-1.81.56-2.33,1.99-4.86,5.48-7.39,7.53.94-16.44,1.08-49.59,0-65.79.29-7.45,1.36-2.45,7.11,2.79.45.09.45-.5,1.25-.56.09,0,.19.01.28,0,.25.69,1.66,1.02,1.95,1.53.45.79,1.87,16.01,1.95,18.12.29,7.13-.16,24.87-1.39,31.5-.19,1.04-.65,3.31-1.39,4.04Z"/>
            <path class="cls-23" d="M38.48,96.59c-.96.23-.39-1.07-.28-3.07,2.53-2.05,5.05-5.53,7.39-7.53.78-.67,1.73-.5,1.81-.56-2.7,3.91-6.17,7.28-8.92,11.15Z"/>
            <path class="cls-48" d="M38.2,27.73c-.18-2.75-.74-5.6-.28-8.36,2.74,3.64,5.85,6.99,8.64,10.59-.81.06-.81.65-1.25.56-5.75-5.23-6.82-10.24-7.11-2.79Z"/>
          </g>
          <g>
            <path class="cls-41" d="M110.4,17.98c-20.5-.68-41.19.34-61.47,3.07-1.73.23-3.01-.65-4.04.56.67-1.97,4.21-2.62,6.13-3.07,1.32-.3,2.84-.36,4.18-.56,4.68-.7,9.24-.81,13.94-1.12,16.32-1.07,25.84-1.1,42.09-.28v.28c-.29.63-.62.8-.84,1.12Z"/>
            <path class="cls-47" d="M110.12,18.54c-.21.18-1.31,1.1-1.39,1.12-1.71.36-29.21-.25-34.98,0-9.1.39-18.21,1.63-27.32,1.95-.53,1.21,1.68.28,1.53,1.39-1.5.03-1.76-.18-3.07-.56-.42-.56-.25-.8-.28-.84h.28c1.04-1.21,2.31-.32,4.04-.56,20.28-2.72,40.96-3.75,61.47-3.07-.07.11-.26.54-.28.56Z"/>
            <path class="cls-41" d="M119.6,26.62l-1.39.28c-.63-.25-1.58-.57-2.23-.56-19.19.43-38.26,1.26-57.42,2.23l.98-.84,35.68-1.67c-8.43-.19-16.94-.23-25.37,0-7.25.2-14.74,1.21-21.88.56-.05-.07-.35-.25-1.12-1.39-.04-1.17.88-.22,1.25-.28,3.99-.59,6.79-1.84,12.82-1.12l-3.35-.56c7.24-.46,14.5-.37,21.74-.56.11,0,.45-.56.56-.56,3.89-.09,29.94-.21,31.5,0,.53.07,5.9,2.8,6.97,3.07,1.21.3,1.72-.28,1.81-.28.18.01.37,0,.56,0,.06,0-.17.37,1.12.56-.66.23-1.69.66-2.23,1.12Z"/>
            <path class="cls-56" d="M120.72,24.95c-.19,0-.37.01-.56,0-1.41-.13-2.43-1.1-3.62-1.67l.56-.84c1.4.33,2.29-.09,3.62-.28.89-.12,1.62-.44,2.51-.56,2.28-.3,4.35-.97,6.69-.14l-9.2,3.48Z"/>
            <path class="cls-44" d="M116.54,23.27c-3.17-1.53-7.19-2.84-7.53-3.07-.03-.02-.25-.44-.28-.56.09-.02,1.19-.94,1.39-1.12,1.72.77,5.8,3.63,6.97,3.9l-.56.84Z"/>
            <path class="cls-36" d="M123.23,21.6c-.89.12-1.62.43-2.51.56-1.22-.75-1.99.68-3.48-1.39-.69-.19-1.18.41-1.67.28-4.86-1.3,1.47-1.43,6.69-.56,2,.33.56.35.98,1.12Z"/>
            <path class="cls-47" d="M46.85,25.23c-.59-.88-1.32-1.95-1.95-2.79,1.31.38,1.56.59,3.07.56,5.96-.11,18.79-1.86,26.34-1.95,5.42-.72,33.17.2,34.85-.28.34-.1-.17-.33-.14-.56.34.22,4.35,1.54,7.53,3.07,1.19.57,2.22,1.54,3.62,1.67-.09,0-.6.58-1.81.28-1.07-.27-6.44-3-6.97-3.07-1.56-.21-27.61-.09-31.5,0-.11,0-.45.55-.56.56-7.25.18-14.5.1-21.74.56l3.35.56c-6.04-.72-8.83.52-12.82,1.12-.38.06-1.3-.89-1.25.28Z"/>
            <path class="cls-54" d="M47.96,23c.15-1.11-2.06-.18-1.53-1.39,9.11-.33,18.22-1.56,27.32-1.95,5.77-.25,33.27.36,34.98,0,.03.12.25.54.28.56-.03.23.48.46.14.56-1.67.48-29.43-.44-34.85.28-7.55.09-20.38,1.84-26.34,1.95Z"/>
            <path class="cls-41" d="M58.55,28.57c-2.67.13-6.42.59-8.64.56-.47,0-.5.14-.84.28-.01-.59-.85-2.37-1.12-2.79,7.15.65,14.63-.36,21.88-.56,8.42-.23,16.94-.19,25.37,0l-35.68,1.67-.98.84Z"/>
          </g>
          <g>
            <path class="cls-9" d="M133.54,97.43c-.56-.66-1.46-.7-2.23-.84-1.4-.96-3.18-1.32-3.35-1.39-1.47-.69-3.05-1.68-4.46-2.51-.73-.43-1.51-.94-2.23-1.39-.6-.37-1.42-1.23-1.67-1.39-.04-.94-.12-1.46.84-.84,3.59,1.91,10.73,6.37,13.94,7.53v.28c-.36.09-.48.43-.84.56Z"/>
            <path class="cls-35" d="M143.02,75.4c-.88,6.88-2.25,14.21-6.97,19.51l-14.77-7.81c3.7-13.91,5.39-46.63-.56-59.38,3.02-1.7,8.94-3.26,10.04-5.85,3.63-1.26,3.2-2.08,5.02-.42,9.74,8.91,8.81,41.71,7.25,53.94Z"/>
            <path class="cls-57" d="M134.93,96.31c-.23-.06-.34.36-.56.28-3.21-1.16-10.34-5.61-13.94-7.53.29-.61.67-1.31.84-1.95l14.77,7.81c-.38.43-.78.92-1.12,1.39Z"/>
            <path class="cls-41" d="M134.93,96.31c.33-.48.73-.96,1.12-1.39,4.72-5.3,6.09-12.63,6.97-19.51.78,1.53-.61,4.55-.56,6.27,3.52,3.06-5.16,16.11-5.99,15.75-.17-.08-.02-.94-.84-1.39-.07-.04-.07.44-.7.28Z"/>
            <path class="cls-19" d="M120.72,27.73c-.42-.9-.11-1.28-1.12-1.12.54-.45,1.57-.88,2.23-1.12,3.02-1.05,5.9-2.57,8.92-3.62-1.09,2.6-7.01,4.16-10.04,5.85Z"/>
            <path class="cls-55" d="M121.27,87.11c-.17.64-.55,1.35-.84,1.95-.95-.63-.88-.1-.84.84-1.39-.92-1.05-1.08-1.12-1.12,2.36-9.92,3.27-22.57,3.07-32.75-.1-5.09-.9-10.01-1.39-15.05-.11-1.12.76-.77.56-2.51-.45-3.89-2.31-7.87-2.51-11.57l1.39-.28c1-.16.7.22,1.12,1.12,5.95,12.74,4.26,45.46.56,59.38Z"/>
          </g>
          <path class="cls-47" d="M121.27,91.29c.72.45,1.5.96,2.23,1.39-1.92.23-7.36-.09-2.23-1.39Z"/>
          <path class="cls-47" d="M118.49,88.78c-3.08-1.75-1.02,4.17-3.35,1.39,1.33-.35,1.01-1.09,1.67-3.35,3.43-11.74,3.71-35.86,1.95-48.09-.63-4.41-1.99-7.96-2.79-11.57-.06-.25.03-.57,0-.84.65-.01,1.6.31,2.23.56.2,3.7,2.06,7.68,2.51,11.57.2,1.73-.67,1.39-.56,2.51.49,5.04,1.29,9.96,1.39,15.05.21,10.18-.71,22.84-3.07,32.75Z"/>
          <g>
            <path class="cls-14" d="M116.81,86.83c-.26-6.21,1.18-12.35,1.39-18.54.31-8.8-.37-21.1-1.67-29.83-1.05-7.05-4.09-11.33-.56-11.29.8,3.61,2.15,7.16,2.79,11.57,1.76,12.23,1.48,36.34-1.95,48.09Z"/>
            <g>
              <path class="cls-53" d="M116.81,86.83c-.66,2.25-.34,3-1.67,3.35-3.28.86-56.89-2.63-66.07-3.07l-1.12-1.95c.74-.73,1.2-3,1.39-4.04,1.23-6.63,1.68-24.37,1.39-31.5-.09-2.11-1.5-17.33-1.95-18.12-.29-.51-1.7-.84-1.95-1.53.93-.11,3.09-.15,3.07-.84,2.22.04,5.97-.42,8.64-.56,19.16-.97,38.24-1.8,57.42-2.23.03.27-.06.58,0,.84-3.54-.05-.5,4.24.56,11.29,1.3,8.72,1.98,21.03,1.67,29.83-.22,6.19-1.65,12.32-1.39,18.54Z"/>
              <path class="cls-20" d="M113.47,50.73c.17,2.13.29,19.38,0,20.35-.56,1.85-2.41.83-2.79-1.12-.09-.47-.47-9.04-.28-9.48.31-.7,2.67-.11,2.51-1.39-.13-1.05-2.3-.24-2.51-1.39-.97-11.79,2.31-16.72,3.07-6.97Z"/>
              <path class="cls-37" d="M112.35,59.1c.2.8-1.5.97-1.67.28-.2-.8,1.5-.97,1.67-.28Z"/>
            </g>
          </g>
        </g>
      </g>
    </g>
  </g>
</svg>