<?xml version="1.0" encoding="UTF-8"?>
<svg id="Layer_2" data-name="Layer 2" xmlns="http://www.w3.org/2000/svg" width="218.9" height="118.88" xmlns:xlink="http://www.w3.org/1999/xlink" viewBox="0 0 218.9 118.88">
  <defs>
    <style>
      .cls-1 {
        fill: #6a0d20;
      }

      .cls-1, .cls-2, .cls-3, .cls-4, .cls-5, .cls-6, .cls-7, .cls-8, .cls-9, .cls-10, .cls-11, .cls-12, .cls-13, .cls-14, .cls-15, .cls-16, .cls-17, .cls-18, .cls-19, .cls-20, .cls-21, .cls-22, .cls-23, .cls-24, .cls-25, .cls-26, .cls-27, .cls-28, .cls-29, .cls-30, .cls-31, .cls-32, .cls-33, .cls-34, .cls-35, .cls-36, .cls-37, .cls-38, .cls-39, .cls-40, .cls-41, .cls-42, .cls-43, .cls-44, .cls-45, .cls-46, .cls-47, .cls-48, .cls-49, .cls-50, .cls-51, .cls-52, .cls-53, .cls-54, .cls-55, .cls-56, .cls-57, .cls-58, .cls-59, .cls-60, .cls-61 {
        stroke-width: 0px;
      }

      .cls-2 {
        fill: #f9865c;
      }

      .cls-3 {
        fill: #b37289;
      }

      .cls-4 {
        fill: #728e8e;
      }

      .cls-5 {
        fill: #f7bc79;
      }

      .cls-6 {
        fill: url(#linear-gradient);
      }

      .cls-7 {
        fill: #9ca8b0;
      }

      .cls-8 {
        fill: #efefee;
      }

      .cls-9 {
        fill: #757c7d;
      }

      .cls-10 {
        fill: #a2b3c6;
      }

      .cls-11 {
        fill: #eb5861;
      }

      .cls-12 {
        fill: url(#linear-gradient-6);
      }

      .cls-13 {
        fill: #e5e2d4;
      }

      .cls-14 {
        fill: #c01621;
      }

      .cls-15 {
        fill: #251f1e;
      }

      .cls-16 {
        fill: #ec797e;
      }

      .cls-17 {
        fill: #fcece9;
      }

      .cls-18 {
        fill: #3a1018;
      }

      .cls-19 {
        fill: #f4612d;
      }

      .cls-20 {
        fill: #aa2e43;
      }

      .cls-21 {
        fill: #313943;
      }

      .cls-22 {
        fill: url(#linear-gradient-5);
      }

      .cls-23 {
        fill: #361b23;
      }

      .cls-24 {
        fill: #636d74;
      }

      .cls-25 {
        fill: #d5a8b6;
      }

      .cls-26 {
        fill: #e32424;
      }

      .cls-27 {
        fill: #cbccca;
      }

      .cls-28 {
        fill: #373638;
      }

      .cls-29 {
        fill: #3f211f;
      }

      .cls-30 {
        fill: #222427;
      }

      .cls-31 {
        fill: #223b4b;
      }

      .cls-32 {
        fill: #d47680;
      }

      .cls-33 {
        fill: #b8c6c3;
      }

      .cls-34 {
        fill: #3b5163;
      }

      .cls-35 {
        fill: #3f4440;
      }

      .cls-36 {
        fill: url(#linear-gradient-2);
      }

      .cls-37 {
        fill: #8ba7b7;
      }

      .cls-38 {
        fill: #919498;
      }

      .cls-39 {
        fill: #9c3a30;
      }

      .cls-40 {
        fill: #372c2d;
      }

      .cls-41 {
        fill: #11151b;
      }

      .cls-42 {
        fill: url(#linear-gradient-3);
      }

      .cls-43 {
        fill: #6d583a;
      }

      .cls-44 {
        fill: #7b101b;
      }

      .cls-45 {
        fill: #b6bcc1;
      }

      .cls-46 {
        fill: #604f4b;
      }

      .cls-47 {
        fill: #6d8391;
      }

      .cls-48 {
        fill: #f57e72;
      }

      .cls-49 {
        fill: #405b61;
      }

      .cls-50 {
        fill: #244652;
      }

      .cls-51 {
        fill: #8facb0;
      }

      .cls-52 {
        fill: #d52f48;
      }

      .cls-53 {
        fill: #2d1e21;
      }

      .cls-54 {
        fill: #a90725;
      }

      .cls-55 {
        fill: #e9373f;
      }

      .cls-56 {
        fill: #dbebee;
      }

      .cls-57 {
        fill: url(#linear-gradient-4);
      }

      .cls-58 {
        fill: #7d2b3d;
      }

      .cls-59 {
        fill: #362833;
      }

      .cls-60 {
        fill: #25343b;
      }

      .cls-61 {
        fill: #82939c;
      }
    </style>
    <linearGradient id="linear-gradient" x1="-497.62" y1="415.08" x2="-437.74" y2="421.4" gradientTransform="translate(605.03 528.99) rotate(90)" gradientUnits="userSpaceOnUse">
      <stop offset="0" stop-color="#cd213b"/>
      <stop offset="1" stop-color="#ff986d"/>
    </linearGradient>
    <linearGradient id="linear-gradient-2" x1="-437.39" y1="434.59" x2="-423.27" y2="436.25" gradientTransform="translate(605.03 528.99) rotate(90)" gradientUnits="userSpaceOnUse">
      <stop offset="0" stop-color="#f47a65"/>
      <stop offset="1" stop-color="#fba76f"/>
    </linearGradient>
    <linearGradient id="linear-gradient-3" x1="-515.06" y1="428.43" x2="-507.57" y2="429.19" gradientTransform="translate(605.03 528.99) rotate(90)" gradientUnits="userSpaceOnUse">
      <stop offset="0" stop-color="#a01330"/>
      <stop offset="1" stop-color="#d2213a"/>
    </linearGradient>
    <linearGradient id="linear-gradient-4" x1="-429.7" y1="502.19" x2="-503.8" y2="537.85" gradientTransform="translate(605.03 528.99) rotate(90)" gradientUnits="userSpaceOnUse">
      <stop offset="0" stop-color="#ffc492"/>
      <stop offset=".33" stop-color="#e03b47"/>
      <stop offset="1" stop-color="#99062b"/>
    </linearGradient>
    <linearGradient id="linear-gradient-5" x1="-440.21" y1="512.71" x2="-432.21" y2="513.91" gradientTransform="translate(605.03 528.99) rotate(90)" gradientUnits="userSpaceOnUse">
      <stop offset="0" stop-color="#626c69"/>
      <stop offset="1" stop-color="#383d3c"/>
    </linearGradient>
    <linearGradient id="linear-gradient-6" x1="-458.43" y1="448.92" x2="-482.26" y2="463.92" gradientTransform="translate(605.03 528.99) rotate(90)" gradientUnits="userSpaceOnUse">
      <stop offset="0" stop-color="#809492"/>
      <stop offset="1" stop-color="#343a3f"/>
    </linearGradient>
  </defs>
  <g id="Layer_1-2" data-name="Layer 1">
    <g>
      <path class="cls-26" d="M191.51,110.75c-.07.05-.71-.11-1.39,1.12-1.4.17-3.95,1-6.27,1.12-12.07.54-24.13-2.13-36.1-2.23-8.52-4.52-11.1-1.84-11.57-2.23-.52-.44.77-1.3-1.53-2.51-.41-.91-1.13-.93.84-1.12,2.68-.25,32.39,4.35,39.17,4.74,2.42.14,10.77.19,12.82,0,2.49-.23,5.44-1.64,7.67-1.39-1.14.87-2.44,1.66-3.62,2.51Z"/>
      <path class="cls-30" d="M216.04,89.01c-2.01-2.09-1.44-3.1-1.39-5.02.02-.68.2-1.89.28-2.79.27-3.17,1.07-6.44,1.39-9.62-.27-4.14.37-8.43.28-12.54-.21-9.09-2.65-21.72-2.51-22.86.02-.19,1.65-2.75,1.95-3.21,3.8,15.08,3.82,40.96,0,56.03Z"/>
      <path class="cls-14" d="M91.15,110.75c0-.19.07-.48-.14-.56-2.25-.78-41.03.21-47.67,0-5.06-.16-24.25-1.33-28.02-1.95-3.51-3.46-6.39-7.39-9.2-11.43,3.86,2.13,5.04,1.81,5.3,1.95,1.17.64,1.06.8,1.12.84.75.55,6.37,6.83,7.67,8.36,23.57,1.96,47.18,1.76,70.81,1.67.44-.31-.34-1.89.7-1.67-.02.44-.54,2.38-.56,2.79Z"/>
      <path class="cls-52" d="M214.92,92.35c-.29-.93-.35-2.23-.84-3.07-1.95-3.36-10.3-2.09-13.8-1.67-5.32.64-24.55,5.3-30.8,6.97-.91-1.1,4.19-1.46,5.71-1.95,1.7-.54,3.44-1.73,5.16-2.23,11.18-3.25,22.78-4.95,34.29-6.41-.05,1.92-.61,2.93,1.39,5.02-.37,1.44-.67,2.05-1.12,3.35Z"/>
      <path class="cls-26" d="M134.64,106.01c-3.04-1.6-4.42.34-4.46,3.35-7.98-.55-15.99.17-23.97.28-.11-.49.51-.95.84-1.12,2.79-1.42,23.47-3.73,28.43-3.9v.28c-1.97.18-1.24.21-.84,1.12Z"/>
      <path class="cls-14" d="M107.04,108.52c-.33.17-.95.62-.84,1.12-3.05.04-6.17-.26-9.2.28.1-1.79-.33-3.62.42-4.18q5.64-.56,11.29-1.12c2.58-.11-2.55,2.35-1.67,3.9Z"/>
      <path class="cls-29" d="M215.2,31.3c-.02.19-1.25,3.41-1.39,3.62-3.04-.51-5.96-1.43-8.92-2.23l.84-.56c.89.2,6.24,1.51,6.55,1.39.73-.28-.28-1.81.7-1.81-1.05-.32-.79-.93-.84-.98-.49-2.74-1.3-5.57-2.51-8.08,1.47,1.15,1.23.86,1.12-.84,1.66,2.42,4.84,6.36,4.46,9.48Z"/>
      <path class="cls-49" d="M15.33,108.24c-1.16-.19-2.3-.53-3.48-.56-2.83-2.91-4.6-6.66-6.83-10.04-.24-.99.06-1.86,0-2.23.39.44.78.91,1.12,1.39,2.81,4.04,5.69,7.97,9.2,11.43Z"/>
      <path class="cls-49" d="M135.2,118.56c-.46-.52-2.05-.2-2.51-.7-.28-.31.45-7.42.56-8.36.18-1.54.82-1.58.84-1.67.04-.16-1.65-2.75,1.12-.42.16.64-.4,1.68.84,1.67l-.56.42c-.22,1.48.41,8.37-.28,9.06Z"/>
      <path class="cls-29" d="M214.92,92.35c-.56,1.62-.85,3.34-1.67,4.88-.86,1.59-2.25,2.74-2.79,3.48.14-1.76,1.85-3.36.84-5.02.32-1.07.52-3.15.84-4.46.02-.07.43.16.28-1.39.31,0,.56-.8,1.67-.56.48.83.55,2.14.84,3.07Z"/>
      <path class="cls-58" d="M209.63,22.66c-2.97-6.17-6.83-9.2-13.38-10.59-.71-.87.99-1.12,1.67-1.12.99.01,4.26,1.44,5.3,2.23.45.57,3.36,2.58,7.53,8.64.12,1.7.36,1.99-1.12.84Z"/>
      <path class="cls-26" d="M136.04,109.08c-1.23,0-.68-1.03-.84-1.67-.24-.96-.23-.66-.56-1.39,2.31,1.21,1.01,2.07,1.53,2.51.47.39,3.05-2.29,11.57,2.23-.06,0-.09.7-.98.56-4.54-1.69-5.68-3.57-10.73-2.23Z"/>
      <path class="cls-29" d="M196.25,12.07c-.45-.1-.94-.2-1.39-.28-1.54-.28-3.27-.23-3.62-.28-19.24-2.77-25.51-.55-43.49-1.39.17-.1.36-.23.56-.28l.42-.56c11.13.5,22.17-.5,33.31,0,3.77.17,15.1,1.55,15.89,1.39v.28c-.69,0-2.38.24-1.67,1.12Z"/>
      <path class="cls-38" d="M4.46,93.75c-.42-.83-1.31-1.95-2.23-1.95-.07-.22.07-.62,0-.84-.69-2.03-1.23-4.11-1.95-6.13,1.98.4.22-3.98-.28-8.64,1.04-.33.87-.64.84-1.67.36,3.83,2.57,15.7,4.46,18.68l-.84.56Z"/>
      <path class="cls-26" d="M91.71,107.96c-1.04-.22-.26,1.36-.7,1.67-23.63.09-47.24.29-70.81-1.67-1.3-1.53-6.92-7.82-7.67-8.36,10.29,2.66,20.68,3.95,31.22,5.02,16.01,1.63,32,2.09,48.09,1.67.36.36-.1.79-.14,1.67Z"/>
      <path class="cls-26" d="M11.43,98.49l-.84-.84c-.4-1.11-.78-2.21-1.12-3.35.92-.09.45,1.44.98,1.67.98.43,1.99-2.12,1.25-2.37,7.09,3,15.46,3.6,22.86,5.99,1.91.62,4.23,2.29,6.41,2.51.45.42.95.2,1.12.84q-15.33-2.23-30.66-4.46Z"/>
      <path class="cls-44" d="M43.77,104.62c-10.55-1.07-20.93-2.35-31.22-5.02-.06-.04.06-.19-1.12-.84v-.28q15.33,2.23,30.66,4.46c-.38,2.05,1.68.39,1.67,1.67Z"/>
      <path class="cls-29" d="M11.43,98.76c-.26-.14-1.44.18-5.3-1.95-.34-.48-.72-.96-1.12-1.39-.05-.33-.17-.82-.28-1.12,1.07,1.03,2.36,1.54,3.62,2.23.73.39,1.39.98,2.23,1.12l.84.84v.28Z"/>
      <path class="cls-44" d="M212.42,89.84c-.29,0-2.99-.64-5.85-.56-7.73.22-11.68,1.58-18.96,3.07-.83.17-1.67.38-2.51.56-5.72,1.18-25.47,6.21-29.27,6.13.04-.22.19-.35.28-.56,4.35-1.64,8.9-2.71,13.38-3.9,6.25-1.67,25.48-6.33,30.8-6.97,3.5-.42,11.85-1.69,13.8,1.67-1.11-.25-1.36.55-1.67.56Z"/>
      <g>
        <path class="cls-26" d="M214.92,81.2c-3.89-3.22-1.48-4.59-1.39-7.39.24-7.49-.98-10.53-1.12-13.66-.16-3.84-.89-21.58-.84-22.72,0-.1.37-1.4.56-1.95.54.04.74.36,1.25.28.56-.38.39-.79.42-.84.14-.21,1.37-3.43,1.39-3.62.8.29.68,1.06.84,1.67-.3.45-1.93,3.02-1.95,3.21-.14,1.14,2.3,13.77,2.51,22.86.09,4.11-.55,8.4-.28,12.54-.32,3.18-1.12,6.45-1.39,9.62Z"/>
        <path class="cls-6" d="M214.65,83.99c-11.51,1.46-23.11,3.16-34.29,6.41-.73-.68-1.45-.64-2.37-.56-3.58.32-13.87,3.03-18.82,3.62,6-12.63,6.13-37.55,4.46-51.57-.03-2.4-1.56-12.52-2.79-13.66-.14-.7-.49-2.38-.56-2.51,2.86.5,5.78.68,8.64,1.12,4.48.68,8.94,1.63,13.38,2.51,7.83,1.54,15.54,3.65,23.42,5.02l-2.65,1.12,8.5,1.95c-.05,1.14.67,18.88.84,22.72.13,3.13,1.35,6.17,1.12,13.66-.09,2.79-2.5,4.17,1.39,7.39-.08.9-.26,2.1-.28,2.79Z"/>
        <path class="cls-52" d="M211.58,37.44l-8.5-1.95,2.65-1.12c1.87.32,4.97,1.01,6.41,1.12-.18.55-.55,1.85-.56,1.95Z"/>
        <path class="cls-48" d="M169.49,94.58c-4.48,1.19-9.03,2.26-13.38,3.9.78-1.76,2.21-3.22,3.07-5.02,4.95-.59,15.23-3.3,18.82-3.62.92-.08,1.64-.12,2.37.56-1.72.5-3.45,1.69-5.16,2.23-1.53.49-6.63.85-5.71,1.95Z"/>
      </g>
      <g>
        <path class="cls-40" d="M135.2,107.41c-2.77-2.33-1.08.26-1.12.42-.02.09-.66.13-.84,1.67-.11.94-.84,8.06-.56,8.36.46.5,2.05.17,2.51.7-1.03,1.03-3.75-.69-3.9-.98-.2-.36-1.12-7.81-1.12-8.22.04-3.01,1.42-4.94,4.46-3.35.33.73.32.43.56,1.39Z"/>
        <path class="cls-40" d="M132.97,106.15c-.78,13.05-.75,15.89-2.23.84l2.23-.84Z"/>
      </g>
      <path class="cls-25" d="M8.36,96.53c-1.27-.69-2.55-1.2-3.62-2.23-.07-.2-.18-.37-.28-.56l.84-.56c.81,1.27,2.29,2.05,3.07,3.35Z"/>
      <path class="cls-32" d="M147.74,10.12c-1.6.98-3.93,4.02-6.13,4.46-.81-.1-1.69.1-2.51,0,3.3-.74,5.9-3.14,8.64-5.02l.56.28c-.19.04-.39.18-.56.28Z"/>
      <path class="cls-28" d="M32.61,9.28c-3.12.11-5.09.05-8.36.56q-5.09.56-10.17,1.12c-1.26.59-.91,1.08-.98,1.12-2.41,1.44-6.23,5.73-7.25,8.36h-.28c.58-1.61.44-2.49,2.23-5.3.2-.18.4-.42.56-.56,1.61-1.42,3.13-2.91,4.88-4.18l2.23-.84c2.88.44,6.34-.77,6.97-.84,1.82-.18,7.53.1,9.76,0,.21,0,.07-.55.28-.56,3.31-.13,8.22.05,11.57.28-3.86.03-7.62.17-11.43.84Z"/>
      <path class="cls-59" d="M159.17,93.47c-.85,1.79-2.28,3.25-3.07,5.02-.78-.15-.52.54-.56.56-.64.33-1.01,1.12-1.53,1.39-5.16,2.7-9.01,2.84-14.63,3.62.04-1.51,4.34-.89,5.71-1.12,1.45-.24,7.89-2.2,8.64-3.07,1.05-1.2-.4-.08-2.09.28.03-.39,1.1-.52,1.12-.7.01-.11-1.15-.78-1.39-.98,0-.43,1.94.58,2.09.56.23-.03.11-.54.14-.56,4.32-1.98,6.47-12.4,7.25-16.73,1.87-10.45,1.84-22.01,1.39-32.61-.38-8.92-1.12-24.14-8.5-29.83-1.23,0-2.25,1.33-2.37,1.39-1.37.73-4.55,2.41-5.58,3.07,1.19-1.04,4.59-4.04,5.58-4.46.11-.05,2-.38,2.37-.56,2.48,2.04,4.16,5.26,4.6,3.9.22.35.35.76.56,1.12,1.12,1.92,1.34,1.84,1.39,1.95.06.13.42,1.81.56,2.51-.36-.34-.44-.87-1.12-.42,1.49,3.24,1.45,7.71,1.67,8.64.7,2.85,1.8,3.73,2.23,5.44,1.67,14.02,1.54,38.94-4.46,51.57Z"/>
      <g>
        <path class="cls-36" d="M201.27,99.32c-2.43,5.71-.88,4.91-6.13,8.92-2.22-.25-5.17,1.17-7.67,1.39-2.06.19-10.4.14-12.82,0-6.77-.39-36.49-4.99-39.17-4.74v-.28c1.21-.42,2.64-.38,3.9-.56,5.63-.79,9.47-.93,14.63-3.62.53-.27.89-1.06,1.53-1.39.08.63.23,0,.28,0,3.8.08,23.55-4.95,29.27-6.13.02,2.34,1.45,1.41,3.9,1.12,4.92-.58,9.84-2.39,14.77-1.67-.96,1.4-2.88,5.31-2.51,6.97Z"/>
        <path class="cls-26" d="M212.14,91.24c-.99-.15-2.05.94-2.51,1.12-.08.03-.57.11-1.67.56-1.43.58-1.56.5-3.07,1.39-.14.08-.91-.48-2.51,1.53-.37,1.07-.67,2.16-1.12,3.21-.03.08.03.2,0,.28-.37-1.66,1.55-5.57,2.51-6.97.28-.41,2.2-2.11,2.79-3.07,2.86-.08,5.56.57,5.85.56.15,1.56-.26,1.32-.28,1.39Z"/>
        <path class="cls-11" d="M203.77,92.35c-4.94-.71-9.86,1.09-14.77,1.67l-1.39-1.67c7.28-1.49,11.23-2.84,18.96-3.07-.59.95-2.51,2.65-2.79,3.07Z"/>
        <path class="cls-48" d="M185.1,92.91c.84-.17,1.68-.39,2.51-.56l1.39,1.67c-2.45.29-3.88,1.22-3.9-1.12Z"/>
      </g>
      <path class="cls-48" d="M155.83,99.04s-.2.63-.28,0c.03-.02-.22-.7.56-.56-.09.21-.24.34-.28.56Z"/>
      <g>
        <path class="cls-45" d="M201.27,99.04c.44-1.04.74-2.14,1.12-3.21,1.6-2.02,2.37-1.45,2.51-1.53-1.42,8.42.14,4.19-3.62,4.74Z"/>
        <g>
          <path class="cls-39" d="M210.46,100.72c-8.49,11.78-10.16,9.95-20.35,11.15.68-1.23,1.32-1.06,1.39-1.12,10.24,1.25,17.04-5.82,19.79-15.05,1.01,1.66-.7,3.25-.84,5.02Z"/>
          <path class="cls-8" d="M211.3,95.7c-2.75,9.23-9.55,16.3-19.79,15.05,1.19-.85,2.48-1.64,3.62-2.51,5.25-4.01,3.7-3.21,6.13-8.92.03-.08-.03-.2,0-.28,3.76-.55,2.2,3.68,3.62-4.74,1.5-.89,1.63-.81,3.07-1.39q-.07,4.18-.14,8.36c1.57-2.72,2.79-5.75,1.81-8.92.46-.18,1.52-1.26,2.51-1.12-.32,1.31-.52,3.39-.84,4.46Z"/>
          <path class="cls-61" d="M207.96,92.91c1.11-.45,1.59-.52,1.67-.56.98,3.17-.24,6.2-1.81,8.92q.07-4.18.14-8.36Z"/>
          <path class="cls-46" d="M202.94,106.43c.89,1.03-1.31.34-1.12,0,.14-.24.93-.22,1.12,0Z"/>
        </g>
      </g>
      <path class="cls-14" d="M34.57,99.6c-7.39-2.39-15.77-3-22.86-5.99.74.25-.28,2.8-1.25,2.37-.52-.23-.06-1.76-.98-1.67-1.06-3.61-2.57-13.87-2.79-17.7-.14-2.5.53-14.61.28-15.33-.07-.21-.36-.14-.56-.14.39-.81,1-.61.84-2.09l-2.23-4.04c.32-2.41-.26-7.08.84-7.25-.06,2.27.04,4.56,0,6.83,2.36-.46-.53-5.49,4.88.42,1.8.06,1.78-13.17,5.85-12.82,3.51.3,2.64,8.86,3.48,14.36,1.93,12.57,3.99,21.79,8.36,33.73.09.25-.13,1.5.28,2.51,1.41,1.61,2.4,5.99,3.76,3.21.35,1.24.92,1.59.98,1.67.43.62,1.05,1.14,1.12,1.95Z"/>
      <path class="cls-54" d="M33.45,97.65c-.06-.08-.63-.43-.98-1.67-1.36,2.78-2.35-1.59-3.76-3.21-.41-1-.19-2.26-.28-2.51-4.37-11.94-6.43-21.16-8.36-33.73-.85-5.5.03-14.06-3.48-14.36-4.07-.35-4.06,12.89-5.85,12.82-5.41-5.91-2.51-.87-4.88-.42.04-2.27-.06-4.56,0-6.83.15-5.89,1.3-11.62,2.23-17.42.44-1.87,2.76-9.24,3.35-10.45.02-.05.41.13.28-.98l1.25-.7c5.96-.33,11.9-1.86,17.84-2.23,2.82-.18,4.34-.5,3.48,1.67-1.25.75-3.46,1.56-4.88,2.23-6.85,6.49-3.86,6.23-4.32,8.22-.02.1-.72-.1-1.12,1.67.23,1.42.13,5.37-1.39,5.3-.45,8.63,1.3,38.21,4.46,44.6.32.65.76,1.41,1.67,1.25.48,3.98.74,10.72,3.07,13.66.33.11.9-1.4,1.12-1.67.57,1.2.48.86,1.67.56-.09.2.41.35.28.7-.43,1.11-1.25,1.94-1.39,3.48Z"/>
      <path class="cls-21" d="M163.63,41.9c-.43-1.71-1.53-2.58-2.23-5.44-.23-.93-.19-5.4-1.67-8.64.67-.45.75.08,1.12.42,1.23,1.14,2.76,11.26,2.79,13.66Z"/>
      <g>
        <path class="cls-5" d="M212.14,35.49c-1.44-.11-4.55-.79-6.41-1.12-7.87-1.37-15.59-3.47-23.42-5.02,2.06-2.08-10.56-2.32-12.68-5.58-.3.94-4.47-.64-4.6-1.39,13.66,2.8,26.46,6.69,39.86,10.31,2.96.8,5.88,1.72,8.92,2.23-.03.04.14.46-.42.84-.52.08-.72-.24-1.25-.28Z"/>
        <path class="cls-2" d="M182.31,29.35c-4.44-.88-8.9-1.83-13.38-2.51-.49-2.2-7.03-2.35-10.04-3.07-.21-.36-.34-.77-.56-1.12-.22-.35-.33-.78-.56-1.12-1.09-1.12,4.03.18,7.25.84.13.75,4.3,2.33,4.6,1.39,2.13,3.26,14.75,3.49,12.68,5.58Z"/>
        <path class="cls-11" d="M160.29,25.73c-.05-.11-.27-.03-1.39-1.95,3.01.72,9.54.86,10.04,3.07-2.86-.44-5.78-.62-8.64-1.12Z"/>
      </g>
      <g>
        <path class="cls-51" d="M199.59,17.64c-1.26-1.51-2.57-2.75-4.18-3.9-1.29-.92-2.61-1.84-4.18-2.23.36.05,2.08,0,3.62.28,4.23,2.42,3.19,2.55,4.74,5.85Z"/>
        <path class="cls-8" d="M208.51,28.52c-.99-.66-2.02-1.24-3.07-1.95l-1.39-3.62c-.03-1.04-.49-3.6,1.39-1.53.94,1.03,1.68,4.49,2.79,6.27.16.26.34.5.28.84Z"/>
        <g>
          <path class="cls-8" d="M212.14,30.75c-.11-.1-2.05-1.36-2.51-1.67-.08-.63-.14-1.68-.28-2.23,1.41-2.37-1.89-7.64-2.93-6.97-.32,1.32.66,2.38.7,2.51.48,1.74,1.2,3.44,1.12,5.3-1.11-1.79-1.84-5.24-2.79-6.27-1.88-2.06-1.43.49-1.39,1.53.05,1.5.62,2.66,0,2.79-.55-.39-1.12-.74-1.67-1.12-.88-2.51-1.66-4.55-2.79-6.97-1.55-3.31-.5-3.43-4.74-5.85.46.08.94.18,1.39.28,6.55,1.39,10.41,4.42,13.38,10.59,1.21,2.51,2.02,5.34,2.51,8.08Z"/>
          <path class="cls-7" d="M209.35,26.84c-.41-1.63-1.3-3.09-2.23-4.46-.03-.13-1.02-1.19-.7-2.51,1.04-.67,4.34,4.6,2.93,6.97Z"/>
          <path class="cls-50" d="M209.63,29.07c-.05-.03-.2.05-1.12-.56.06-.34-.12-.58-.28-.84.08-1.86-.63-3.56-1.12-5.3.93,1.37,1.82,2.83,2.23,4.46.14.55.2,1.6.28,2.23Z"/>
          <path class="cls-40" d="M204.33,16.39c-.2.3-1.53-.02-1.81-.14-2.55-1.09-3.65-4.38,1.81.14Z"/>
        </g>
        <path class="cls-4" d="M205.45,26.57c-.07-.05-.31-.07-1.39-.84.62-.13.05-1.29,0-2.79l1.39,3.62Z"/>
      </g>
      <g>
        <path class="cls-44" d="M204.89,32.7c-13.4-3.63-26.2-7.51-39.86-10.31-3.22-.66-8.33-1.96-7.25-.84-.1-.15-.88.26-1.95-2.79,6.44,2.05,15.57,3.28,23.14,5.3,8.99,2.4,17.67,6,26.76,8.08l-.84.56Z"/>
        <path class="cls-26" d="M205.73,32.14c-9.09-2.08-17.77-5.68-26.76-8.08,1.28-1.15,4.59.76,4.88.84.33.08.53-.43,1.12-.28.23.06.05.5.28.56,1.25.33,2.49.48,3.76.84,4.33,1.19,11.89,4.21,13.1,2.51.38.14.74.4,1.12.56,5.59,2.37,6.17,4.56,6.13,2.09-.02-1.1-4.38-3.53-6.13-4.88-.48-.53-.61-1.02-.84-1.67.55.38,1.13.73,1.67,1.12,1.09.77,1.33.79,1.39.84,1.05.71,2.08,1.29,3.07,1.95.91.61,1.06.52,1.12.56.46.31,2.4,1.57,2.51,1.67.05.04-.22.65.84.98-.98,0,.04,1.53-.7,1.81-.31.12-5.66-1.19-6.55-1.39Z"/>
        <path class="cls-20" d="M150.81,16.25c-3.03-.71-6.12-1.29-9.2-1.67,2.21-.44,4.53-3.48,6.13-4.46,17.98.85,24.25-1.38,43.49,1.39,1.58.39,2.89,1.31,4.18,2.23.15.98-1.45-.19-2.09-.28-2.94-.38-6.01-.4-8.92-1.12-5.16-.16-33.41-.14-35.68,1.67-2.72,2.16,9.75.58,12.68,1.25-3.91.64-11.86-.74-10.59.98Z"/>
        <path class="cls-42" d="M203.22,29.07c-.38-.16-.73-.41-1.12-.56-2.01-.76-12.61-4.28-13.1-2.51-1.28-.35-2.52-.51-3.76-.84-.23-.06-.05-.5-.28-.56-.59-.15-.78.36-1.12.28-.29-.07-3.6-1.99-4.88-.84-7.57-2.02-16.7-3.25-23.14-5.3-1.78-.57-3.4-1.61-5.02-2.51-1.27-1.71,6.69-.34,10.59-.98-2.94-.67-15.4.91-12.68-1.25,2.27-1.81,30.52-1.83,35.68-1.67,2.91.71,5.98.73,8.92,1.12.64.08,2.24,1.26,2.09.28,1.61,1.15,2.92,2.39,4.18,3.9,1.13,2.41,1.91,4.46,2.79,6.97.23.65.35,1.15.84,1.67-1.56-1.2-2.74-3.15-2.79-1.53-.01.52,3.38,2.82,2.79,4.32Z"/>
        <path class="cls-26" d="M203.22,29.07c.6-1.5-2.8-3.81-2.79-4.32.05-1.62,1.22.33,2.79,1.53,1.75,1.35,6.12,3.78,6.13,4.88.04,2.47-.54.28-6.13-2.09Z"/>
        <path class="cls-55" d="M189,26.01c.49-1.77,11.09,1.75,13.1,2.51-1.21,1.7-8.77-1.31-13.1-2.51Z"/>
      </g>
      <path class="cls-54" d="M139.1,14.58c-4.05-.47-28.11-2.39-29.69-3.35-.63-.38-.8-.96-.7-1.67,3.75.02,16.86.63,19.79,1.39.04.01-.12.77.14.84,8.38,2.17,5.04.39,6.69-.28.59-.24,9.17-.71,12.4-2.23v.28c-2.74,1.88-5.34,4.28-8.64,5.02Z"/>
      <path class="cls-58" d="M68.85,12.63c-.89-.82-3,.5-3.07-1.12.64-.02,1.95.1,1.95-.14-1.08,0-2.49-1.77-2.65-1.81-.66-.18-8.69-.23-10.73-.28-6.39-.16-15.45-.23-21.74,0,3.81-.66,7.57-.8,11.43-.84,14.03-.12,28.08.96,42.09,1.12,1.14,1.71,3.32-1.31,5.85,2.79-1.17.65-19.84.17-23.14.28Z"/>
      <path class="cls-54" d="M95.06,12.91c2.73-1.14,2.09-1.77,2.23-3.07h1.95c2.52,1.87,6.47-1.74,9.9,3.62-2.36-.68-13.55.17-14.08-.56Z"/>
      <path class="cls-3" d="M.56,67.82c-.79-11.1-.26-28.87,3.07-39.31.42-.05.57-.05.56.42-.02.49-1.9,7.31-2.23,9.48-1.34,8.8-1.76,20.51-1.39,29.41Z"/>
      <path class="cls-17" d="M4.46,26.29l.28-3.07s.31.06.28-.28c.57-.41,1.6-.78,1.67-.84-.45,1.46-1.67,2.81-2.23,4.18Z"/>
      <g>
        <path class="cls-40" d="M147.74,9.28c-3.24,1.52-11.82,1.99-12.4,2.23-1.65.67,1.68,2.45-6.69.28-.26-.07-.1-.82-.14-.84,1.13.2,1.15-3.62,1.39-5.02.14-.81.84-5.15,1.12-5.44.45-.47,3.6-.61,4.04-.42.98.43.81,6.4.98,7.53.12.83.6,1.78.28,2.37,3.7.13,7.67-.84,11.57-1.81l.98.42c-.63.84-1.06.67-1.12.7Z"/>
        <path class="cls-47" d="M132.97,9c.73-.47.57-5.04.84-7.81.22-.06,1-.06,1.12.14-.31,6.52,1.15,11.75-1.95,7.67Z"/>
        <path class="cls-49" d="M132.97,9s-.79-.46-.84-.7c-.14-.68.9-6.9,1.67-7.11-.26,2.76-.11,7.34-.84,7.81Z"/>
      </g>
      <path class="cls-1" d="M36.52,19.88c-.48.67-1.15,1.06-1.12,1.67-.53.5-1.15.59-1.12,1.53.02.5,4.84,7.35,5.58,8.22-.55.1-.68-.38-1.12-.56-.1-.04-.36.02-.56,0-.04-.97-1.77-2.25-1.95-2.51-1.16-1.67-2.26-3.47-3.9-4.74.26-2.48,3.03-4.54,5.3-5.99.03-.02-.61-.44-.14-.7.27-.15,7.36-1.49,4.46-2.23-.36-.09-6.06,1.46-7.25,1.12-.18.79.96.25.98.98,0,.41-1.14.82-1.39.98.86-2.18-.67-1.85-3.48-1.67-5.94.37-11.88,1.9-17.84,2.23l-1.25.7c.13,1.1-.26.93-.28.98.27-2.11-2.83.93-4.74,2.23-.08.05-1.1.43-1.67.84-1.22-.67.27-1.73.56-2.51h.28c-.14.36-.53.69-.14,1.12.39-.66.79-1.34,1.25-1.95.74.44,3.99-1.45,5.3-2.23.91-.54,1.64-1.09,2.51-1.67,1.34,1.27,7.63-.95,10.73-1.39,13.28-1.92,26.89-2.36,40.28-2.79.07,1.61,2.17.3,3.07,1.12-8.07.26-23.94,1-30.8,5.02-2.72,1.59-.11.22-1.53,2.23Z"/>
      <path class="cls-20" d="M17,14.02c.65-.46,1.38-.83,1.95-1.39,3.4-1.12-.11-1.35.98-2.23,1.45-.11,2.88-.33,4.32-.56,3.27-.51,5.24-.44,8.36-.56,6.29-.23,15.36-.16,21.74,0,.14.98-.05,1.14-.98,1.39-1.33.37-19.2.68-27.6,1.95-2.73.41-6.15,1.84-8.78,1.39Z"/>
      <path class="cls-54" d="M18.96,12.63c-3.15,1.03-4.5,2.19-6.69,4.74-1.31.78-4.56,2.67-5.3,2.23,3.93-5.15,6.23-6.4,6.41-6.83.08-.19.07-.72-.28-.7.06-.04-.29-.53.98-1.12q5.09-.56,10.17-1.12c-1.44.22-2.87.44-4.32.56-1.08.88,2.43,1.11-.98,2.23Z"/>
      <path class="cls-10" d="M6.97,19.6c-.46.61-.87,1.29-1.25,1.95-.39-.43,0-.75.14-1.12,1.02-2.63,4.83-6.92,7.25-8.36.35-.03.36.5.28.7-.18.43-2.48,1.68-6.41,6.83Z"/>
      <g>
        <path class="cls-30" d="M97.29,9.84c-.14,1.3.5,1.92-2.23,3.07-.03-.05.02-.33,0-.56,1.37.32.19-5.43.56-9.06-4.56-1.28-3.22-.22-3.35,2.65-1.41-.06.2-4-.84-3.9,1.7-1.29,3.42,0,5.44-.28.3.21.08,1.27.14,1.67.21,1.42.42,5.09.28,6.41Z"/>
        <path class="cls-15" d="M91.99,12.35c-2.53-4.1-4.71-1.08-5.85-2.79,1.35.02,3.14-.22,4.04.28.75-.26.3-2.65.42-4.18.14-1.85-.56-2.57.84-3.62,1.04-.09-.57,3.84.84,3.9-.06,1.39.08,2.8,0,4.18,0,.1-.91.77.28,1.81l-.56.42Z"/>
        <path class="cls-56" d="M95.06,12.35c-1.6-.34-2.7-.21-2.79-2.23.08-1.39-.06-2.79,0-4.18.12-2.87-1.21-3.93,3.35-2.65-.37,3.63.81,9.38-.56,9.06Z"/>
      </g>
      <path class="cls-44" d="M32.34,23.5c-.27.04-.45.59-.56.84-6.26,15.16-5.02,40.38-3.07,56.59-.91.15-1.35-.61-1.67-1.25-3.16-6.4-4.91-35.97-4.46-44.6,1.53.08,1.62-3.87,1.39-5.3.39-1.77,1.09-1.57,1.12-1.67.46-1.99-2.53-1.74,4.32-8.22,1.41-.67,3.63-1.48,4.88-2.23.25-.15,1.4-.57,1.39-.98-.02-.73-1.15-.18-.98-.98,1.19.35,6.89-1.21,7.25-1.12,2.9.74-4.19,2.08-4.46,2.23-.47.26.17.68.14.7-2.26,1.46-5.03,3.51-5.3,5.99Z"/>
      <path class="cls-20" d="M65.79,11.51c-13.39.43-27,.87-40.28,2.79-3.1.45-9.4,2.66-10.73,1.39.77-.52,1.47-1.14,2.23-1.67,2.63.44,6.05-.98,8.78-1.39,8.4-1.27,26.26-1.58,27.6-1.95.93-.26,1.11-.42.98-1.39,2.04.05,10.08.1,10.73.28.16.04,1.57,1.81,2.65,1.81,0,.24-1.31.12-1.95.14Z"/>
      <path class="cls-3" d="M17,14.02c-.76.54-1.46,1.15-2.23,1.67-.86.59-1.6,1.13-2.51,1.67,2.19-2.55,3.54-3.71,6.69-4.74-.57.56-1.3.93-1.95,1.39Z"/>
      <g>
        <path class="cls-29" d="M139.38,104.06c-1.27.18-2.69.13-3.9.56-4.96.17-25.65,2.49-28.43,3.9-.88-1.55,4.25-4.01,1.67-3.9v-.28c10.81-.45,31.01-2.06,41.26-3.9.54-.1,1.15-.17,1.67-.28,1.69-.36,3.14-1.48,2.09-.28-.75.86-7.19,2.83-8.64,3.07-1.38.23-5.67-.4-5.71,1.12Z"/>
        <g>
          <path class="cls-29" d="M97.01,109.91c-.09,1.62.06,3.26,0,4.88-5.43,3.07-6.08,1.03-5.85-4.04.02-.41.54-2.35.56-2.79.04-.88.5-1.31.14-1.67-16.09.42-32.07-.05-48.09-1.67,0-1.28-2.06.37-1.67-1.67-.17-.64-.66-.42-1.12-.84-1.89-1.75-2.68-1.02-2.51-2.23,14.26,5.42,53.96,5.13,70.25,4.46v.28q-5.64.56-11.29,1.12c-.75.56-.32,2.39-.42,4.18Z"/>
          <path class="cls-8" d="M96.73,106.71c-1.27,4.05,2.22,9.95-4.6,8.78.43-3.03-.75-11.6,4.6-8.78Z"/>
        </g>
        <path class="cls-44" d="M34.57,99.6c-.06-.81-.69-1.33-1.12-1.95.14-1.54.97-2.38,1.39-3.48.13-.34-.37-.5-.28-.7.77-1.75,3.92-5.32,5.58-6.41l-6.13,9.62c.01.58,1.22,1.49,1.67,1.81.82.6,1.85,1.04,2.79,1.39-.17,1.21.62.48,2.51,2.23-2.19-.21-4.5-1.89-6.41-2.51Z"/>
        <path class="cls-44" d="M11.43,19.88c-.58,1.21-2.91,8.58-3.35,10.45-.93,5.8-2.08,11.54-2.23,17.42-1.09.17-.52,4.84-.84,7.25,0,.07-.67-.26-.84,1.25-.39,3.48-1.61,12.82,2.23,4.88.19,0,.48-.07.56.14.25.72-.42,12.83-.28,15.33.22,3.83,1.72,14.09,2.79,17.7.33,1.14.72,2.23,1.12,3.35-.84-.13-1.5-.72-2.23-1.12-.78-1.29-2.26-2.07-3.07-3.35-1.89-2.98-4.1-14.85-4.46-18.68-.2-2.08-.19-4.55-.28-6.69-.36-8.9.06-20.61,1.39-29.41.33-2.17,2.21-8.99,2.23-9.48.02-.47-.14-.46-.56-.42.25-.78.52-1.47.84-2.23.56-1.37,1.78-2.72,2.23-4.18,1.9-1.3,5.01-4.34,4.74-2.23Z"/>
        <path class="cls-53" d="M151.37,19.32v-.28c.23.01.57.03.56-.14-.13-1.52-16.54-3.04-18.96-2.65-5.92-.58-11.9-1.08-17.84-1.39-.18,0-.37,0-.56,0,.12-1.17-2.81-.1-5.16-.84.89-2.49-4.05-2.94-2.37-4.46.56,0,1.12,0,1.67,0-.11.71.06,1.29.7,1.67,1.58.96,25.64,2.87,29.69,3.35.82.1,1.7-.1,2.51,0,3.08.38,6.17.97,9.2,1.67,1.62.9,3.24,1.94,5.02,2.51,1.07,3.05,1.85,2.64,1.95,2.79.23.34.34.77.56,1.12-.44,1.35-2.12-1.86-4.6-3.9-.37.17-2.26.51-2.37.56Z"/>
        <path class="cls-18" d="M114.57,14.86c-21.2-1.09-58.37-1.36-78.05,5.02,1.42-2.01-1.19-.64,1.53-2.23,6.86-4.01,22.73-4.75,30.8-5.02,3.3-.11,21.97.37,23.14-.28l.56-.42c-1.19-1.04-.28-1.71-.28-1.81.09,2.02,1.19,1.89,2.79,2.23.02.22-.03.51,0,.56.53.73,11.71-.12,14.08.56-3.43-5.37-7.37-1.76-9.9-3.62,4.15.53,7.41-.27,7.81-.28-1.68,1.52,3.26,1.97,2.37,4.46,2.35.74,5.28-.34,5.16.84Z"/>
        <path class="cls-14" d="M6.41,61.13c-3.84,7.95-2.62-1.4-2.23-4.88.17-1.51.83-1.18.84-1.25l2.23,4.04c.16,1.48-.44,1.28-.84,2.09Z"/>
        <path class="cls-52" d="M162.24,49.14l-.28,10.17-4.74.28q-.07,3.97-.14,7.94l-.42-6.41c.03-3.09-.25-15.2-.84-17.28q-.42-5.37-.84-10.73c-1.53-2.95-.78-7.83-3.21-11.01-.77.78-1.5,1.55-2.37,2.23.43-2.03,3.69-2.7,1.95-3.62.12-.06,1.14-1.39,2.37-1.39,7.38,5.69,8.13,20.91,8.5,29.83Z"/>
        <path class="cls-55" d="M160.84,81.76c-1.3-.23-4.11-.33-4.6-1.39-1.21,1.26-.27,5.84-1.25,2.51.41-3.12.87-6.35,1.12-9.48.31-3.91.52-8.35.56-12.27l.42,6.41q.07-3.97.14-7.94l4.74-.28.28-10.17c.45,10.6.48,22.17-1.39,32.61Z"/>
        <path class="cls-26" d="M151.37,98.49c-2.47-1.98-13.41-9.28-14.5-11.15l-.56-.7c-.09-9.52.12-19.05,0-28.57.48-.66.83,3.96,1.67,2.37.38-.72-.49-10.52.28-12.68.06,12.27.26,24.56-.56,36.8-.94-.93-1.07.79-.84,1.81.19.83,5.15,5.85,5.02,1.81,3.21,2.87,7.08,5.95,10.31,8.36.13,1.27.82,1.16,1.39,1.95-.03.01.09.52-.14.56-.15.02-2.09-.99-2.09-.56Z"/>
        <path class="cls-48" d="M153.6,98.49c-.57-.79-1.26-.69-1.39-1.95-.05-.47.47-1.46.56-1.95.44-2.51,1.29-5,1.67-7.53.21-1.38.37-2.79.56-4.18.99,3.33.04-1.25,1.25-2.51.49,1.06,3.3,1.17,4.6,1.39-.77,4.32-2.93,14.75-7.25,16.73Z"/>
        <path class="cls-14" d="M149.42,24.34c-1.5,1.18-2.97,2.43-4.46,3.62-2.35,1.88-4.93,3.5-7.25,5.44-.02.7.03,1.4,0,2.09-1.21,2.42-.84-1.69-2.23-1.39v-2.65c1.4-.48,1.07-.92,1.12-.98.38-.42,8.16-6.02,9.2-6.69,1.03-.66,4.2-2.34,5.58-3.07,1.73.92-1.52,1.6-1.95,3.62Z"/>
        <g>
          <path class="cls-57" d="M136.87,90.4c-.95-.58-1.8-1.72-3.07-1.67-.74-.03-1.49.05-2.23,0-1.14-.07-4.43-.13-5.3,0,.16-.7-.42-.6-1.25-.56-2.09.11-11.39-.03-12.27.28-.21.07-.14.36-.14.56-21.56-.34-43.13-1.25-64.67-2.23h-2.23c-1.31-.2-2.61-.28-3.9-.56h-.98c-.28.13-.65.81-.7.84-1.66,1.09-4.8,4.66-5.58,6.41-1.19.3-1.1.65-1.67-.56,1.71-2.24,3.08-4.51,4.46-6.97.02-.03.94-.41.28-.56.32-.6.8-1.19,1.12-1.81-.68-10.18-.95-20.33-.84-30.52,0-.42.55-2.77.56-3.21.08-4.82-.46-9.81.56-14.5-.1-1.11-3.87-5.31-4.74-6.55-.76-1.09-1.65-2.43-2.23-3.62-.14-.29-.36-.47-.28-.84.1-.25.29-.8.56-.84,1.65,1.26,2.74,3.07,3.9,4.74-1.34.24-2.06-2.06-1.95-.42.04.65,1.08.78,1.12.84.31.52,2.97,6.12,2.79,2.09.19.02.45-.04.56,0,2.05,4.43,4.81,1.51,9.9,2.23,3.28-1.74,8.58-.27,12.68-1.39,10.37.22,20.73-.94,31.08-1.12,10.08-.17,20.17.15,30.25,0,3.13.59,7.65.32,11.15.28.92-.01,1.96.19,2.79-.28-.05.05.29.49-1.12.98v2.65c.78,7.96.74,15.99.84,23.97.12,9.52-.09,19.05,0,28.57l.56.7c-1.65-.41-.8,1.8,0,3.07Z"/>
          <path class="cls-52" d="M138.27,47.75c-.77,2.16.1,11.97-.28,12.68-.84,1.59-1.19-3.03-1.67-2.37-.1-7.99-.06-16.01-.84-23.97,1.39-.29,1.02,3.81,2.23,1.39-.05,1.14.53,7.48.56,12.27Z"/>
        </g>
        <path class="cls-20" d="M38.19,30.75c.18,4.03-2.48-1.57-2.79-2.09-.04-.06-1.07-.18-1.12-.84-.1-1.64.62.66,1.95.42.18.26,1.91,1.54,1.95,2.51Z"/>
        <path class="cls-16" d="M32.89,92.91c-.21.28-.79,1.78-1.12,1.67-.03-.3.06-.72,0-.84.37-.8.91-1.5,1.39-2.23,1.42-2.13,4-5.28,4.18-5.58-1.38,2.46-2.75,4.72-4.46,6.97Z"/>
        <g>
          <path class="cls-45" d="M108.72,104.34c-16.29.67-55.99.96-70.25-4.46-.94-.36-1.96-.8-2.79-1.39-.41-1.19,4.18-7.47,4.88-8.08.03-.02.37.49.7.28v.28c-.84,1.56-2.65,3.57-3.35,5.02-1.11,2.31-1.61,2.26,6.27,3.9,25.99,5.43,76.83,3.08,104.12-.84.59.4,1.34.7,1.67,1.39-10.24,1.84-30.45,3.46-41.26,3.9Z"/>
          <path class="cls-22" d="M37.91,95.98c.7-1.45,2.5-3.46,3.35-5.02,14.06,1.63,28.06,2.89,42.23,2.23-2.21-1.62,3.77-.27,7.11-1.12,10.08.13,20.16.25,30.25.28.51-.49.93-1.02,1.53-1.39-.03.34.24.25.28.28,1.31.89,12.25.67,14.77.84.49.37,7.66,4.99,6.83,5.58-21.26,2.76-42.67,4.19-64.11,3.62-6.02-.16-16.29-.55-22.02-1.12-1.48-.14-15.38-2.3-16.17-2.51-.08-.02.19-.32-1.39-.84-.27-.09-.81.53-1.12.28-.71-.57,1-2.16-1.53-1.12Z"/>
          <path class="cls-30" d="M37.91,95.98c2.53-1.04.82.54,1.53,1.12.31.25.84-.37,1.12-.28,1.59.52,1.32.82,1.39.84.79.21,14.69,2.36,16.17,2.51,5.73.56,16.01.96,22.02,1.12,21.44.57,42.85-.87,64.11-3.62.83-.58-6.34-5.2-6.83-5.58-.55-.42-1.12-.95-1.67-1.39-.64-.52-1.86-1.39-1.95-1.95,1.26-.05,2.12,1.1,3.07,1.67,3.01,1.83,7.7,6.11,11.43,8.64-27.29,3.92-78.13,6.26-104.12.84-7.88-1.65-7.38-1.59-6.27-3.9Z"/>
          <path class="cls-21" d="M41.26,90.96v-.28c.35-.22.7-.41.84-.84,16.11,1.78,32.31,2.02,48.5,2.23-3.34.84-9.32-.5-7.11,1.12-14.17.66-28.17-.6-42.23-2.23Z"/>
          <path class="cls-13" d="M151.65,100.16c-.52.11-1.13.18-1.67.28-.33-.69-1.08-.99-1.67-1.39-3.73-2.53-8.42-6.82-11.43-8.64-.8-1.26-1.65-3.48,0-3.07,1.08,1.87,12.03,9.17,14.5,11.15.24.19,1.4.87,1.39.98-.02.17-1.09.31-1.12.7Z"/>
          <path class="cls-56" d="M42.09,88.45c.01.45.06,1.2,0,1.39-.14.43-.49.61-.84.84-.33.21-.67-.3-.7-.28-.7.61-5.29,6.89-4.88,8.08-.45-.33-1.66-1.23-1.67-1.81l6.13-9.62s.41-.7.7-.84h.98c-.02.79.26,1.42.28,2.23Z"/>
          <path class="cls-27" d="M126.28,88.73c-2.11.31-2.34,1.26-3.9,2.23-.61.38-1.03.91-1.53,1.39-10.08-.03-20.17-.15-30.25-.28-16.2-.21-32.39-.45-48.5-2.23.06-.2.01-.94,0-1.39,26.04,3.01,52.3,2.29,78.47,2.51,5.64-3.11,1.76-1.8-7.94-1.95,0-.19-.07-.48.14-.56.88-.31,10.17-.16,12.27-.28.83-.05,1.41-.15,1.25.56Z"/>
          <path class="cls-49" d="M129.9,90.96c-2.44-.02-4.98-.29-7.25.28-.04-.02-.31.06-.28-.28,1.56-.97,1.79-1.92,3.9-2.23.87-.13,4.16-.07,5.3,0,.14.92-1.78.22-1.67,2.23Z"/>
          <path class="cls-33" d="M122.65,91.24c2.27-.57,4.81-.3,7.25-.28,2.61.02,5.59.35,5.85-.28.55.45,1.12.97,1.67,1.39-2.53-.16-13.47.05-14.77-.84Z"/>
          <path class="cls-4" d="M129.9,90.96c-.1-2.01,1.81-1.31,1.67-2.23.74.05,1.49-.03,2.23,0,.09.56,1.31,1.43,1.95,1.95-.27.63-3.25.3-5.85.28Z"/>
          <path class="cls-50" d="M42.09,88.45c-.02-.81-.3-1.44-.28-2.23,1.29.28,2.59.36,3.9.56.11.02,1.59.77,2.23,0,21.54.98,43.11,1.89,64.67,2.23,9.71.15,13.59-1.16,7.94,1.95-26.17-.22-52.43.5-78.47-2.51Z"/>
          <path class="cls-59" d="M45.72,86.78h2.23c-.64.77-2.12.02-2.23,0Z"/>
        </g>
        <g>
          <path class="cls-59" d="M37.63,85.38c-.11.21-.23.48-.28.56-.18.3-2.76,3.44-4.18,5.58-.88-.59,1.58-2.38,1.67-3.48.06-.7-1.62-7.86-1.95-13.94-.23-4.15-.44-13.18,0-17.14.14-1.3.36-2.59.42-3.9,2.17.12,4.68-1.1,4.6,0-.11,10.2.15,20.35.84,30.52-.32.62-.8,1.21-1.12,1.81Z"/>
          <path class="cls-23" d="M37.91,53.05c.09-1.1-2.43.12-4.6,0-.06,1.31-.27,2.6-.42,3.9-.18-9.41.29-18.8,1.39-28.15.86,1.24,4.64,5.45,4.74,6.55-1.02,4.69-.47,9.68-.56,14.5,0,.44-.55,2.78-.56,3.21Z"/>
          <g>
            <path class="cls-41" d="M33.17,91.52c-.49.73-1.02,1.43-1.39,2.23-3.59-7.44-4.26-33.55-3.9-42.51.32-7.99,1.51-18.57,4.18-26.06.58,1.19,1.47,2.53,2.23,3.62-1.1,9.35-1.57,18.75-1.39,28.15-.44,3.96-.23,13,0,17.14.33,6.08,2.01,13.24,1.95,13.94-.09,1.1-2.55,2.89-1.67,3.48Z"/>
            <path class="cls-20" d="M31.78,93.75c.06.12-.03.53,0,.84-2.33-2.94-2.59-9.68-3.07-13.66-1.96-16.21-3.19-41.42,3.07-56.59-.08.36.14.55.28.84-2.67,7.5-3.86,18.07-4.18,26.06-.36,8.96.32,35.07,3.9,42.51Z"/>
          </g>
          <path class="cls-16" d="M37.35,85.94c.05-.08.17-.35.28-.56.66.15-.26.53-.28.56Z"/>
        </g>
        <path class="cls-19" d="M137.71,84.55c1.53,1.06,2.8,2.39,4.18,3.62.13,4.04-4.83-.98-5.02-1.81-.23-1.03-.11-2.74.84-1.81Z"/>
        <g>
          <path class="cls-30" d="M154.99,82.87c-.18,1.39-.35,2.8-.56,4.18-1.19.04-.54,3.93-1.53,4.18-.69.17.04-1.69-1.25.84-.37.06-.35-1.08-.28-1.95.32-3.72.82-7.42,1.12-11.15,4.61.03,1.76-3.5,3.62-5.58-.25,3.13-.7,6.36-1.12,9.48Z"/>
          <path class="cls-53" d="M152.2,96.53c-3.24-2.41-7.1-5.5-10.31-8.36-1.38-1.23-2.65-2.56-4.18-3.62.82-12.23.62-24.53.56-36.8-.02-4.78-.61-11.13-.56-12.27.03-.69-.02-1.4,0-2.09,2.31-1.93,4.9-3.55,7.25-5.44-.51,1.74-6.41,4.84-6.69,5.71.65,10.91.86,21.83.84,32.75-.02,5.86-.29,11.86-.84,17.7,2.4,1.4,11.95,10.87,12.68,11.29,1.81,1.03.5-.48,1.81-.84-.09.49-.61,1.48-.56,1.95Z"/>
          <g>
            <path class="cls-41" d="M155.83,43.85c-.78-2.78-1.7-1.8-3.07.56-.23-2.68-.34-6.91-1.39-8.92.24-.49.84-.77.28-.84q-.63-4.04-1.25-8.08c-.64-.3-9.86,7.59-11.01,8.78-.08,2.94.25,5.84.28,8.78.08,7.44.3,14.86.28,22.3h-.84c.03-10.92-.19-21.85-.84-32.75.28-.88,6.18-3.98,6.69-5.71,1.49-1.2,2.96-2.44,4.46-3.62.86-.68,1.6-1.45,2.37-2.23,2.43,3.18,1.67,8.06,3.21,11.01q.42,5.37.84,10.73Z"/>
            <path class="cls-31" d="M156.66,61.13c-.04,3.92-.25,8.35-.56,12.27-1.87,2.07.99,5.61-3.62,5.58,1.02-12.77,1.41-21.68.28-34.57,1.37-2.35,2.28-3.33,3.07-.56.59,2.09.86,14.19.84,17.28Z"/>
            <path class="cls-30" d="M152.76,94.58c-1.31.36,0,1.87-1.81.84-.74-.42-10.28-9.89-12.68-11.29.55-5.85.82-11.84.84-17.7h.84c0,.65,0,1.3,0,1.95-.03,4.15-.94,8.69-.28,12.82,0,.05-.42-.15-.28.98,1.91.92,11.07,10.3,11.85,10.45.59.12.34-.41.42-.56,1.3-2.53.56-.66,1.25-.84.99-.25.34-4.14,1.53-4.18-.38,2.53-1.23,5.02-1.67,7.53Z"/>
            <path class="cls-12" d="M152.48,78.97c-.3,3.73-.79,7.43-1.12,11.15h-.28c-1.06-9.13-3.52-16.17-11.15-21.74,0-.65,0-1.3,0-1.95.02-7.45-.2-14.86-.28-22.3.19.02.44-.04.56,0,.06.02-.04.48.98,0,1.28-.61,9.55-7.37,10.17-8.64,1.05,2.01,1.16,6.24,1.39,8.92,1.13,12.89.75,21.8-.28,34.57Z"/>
            <g>
              <path class="cls-28" d="M151.65,34.65c-3.49,3.54-7.3,6.71-11.43,9.48-.11-.04-.37.02-.56,0-.03-2.94-.36-5.84-.28-8.78,1.16-1.19,10.37-9.08,11.01-8.78q.63,4.04,1.25,8.08Z"/>
              <path class="cls-9" d="M151.37,35.49c-.62,1.27-8.89,8.03-10.17,8.64-1.01.48-.91.02-.98,0,4.13-2.77,7.94-5.94,11.43-9.48.56.06-.04.34-.28.84Z"/>
            </g>
            <g>
              <path class="cls-43" d="M139.66,81.2c4.28,2.14,8.6,8.69,11.43,8.92h.28c-.08.87-.09,2.01.28,1.95-.07.14.18.67-.42.56-.78-.15-9.94-9.53-11.85-10.45-.14-1.13.29-.93.28-.98Z"/>
              <path class="cls-35" d="M151.09,90.12c-2.83-.23-7.15-6.78-11.43-8.92-.66-4.14.24-8.67.28-12.82,7.63,5.57,10.09,12.62,11.15,21.74Z"/>
            </g>
          </g>
        </g>
        <g>
          <path class="cls-56" d="M151.37,19.32c-.98.42-4.39,3.42-5.58,4.46-1.04.67-8.82,6.27-9.2,6.69-.82.46-1.86.27-2.79.28v-.28c2.35-1.11,14.5-12.08,15.47-12.27.24-.05,2.05.28,2.09.84v.28Z"/>
          <path class="cls-3" d="M122.65,30.47c.46,0,.93,0,1.39,0,.28,0,.56,0,.84,0,2.97-.06,5.95.04,8.92,0v.28c-3.5.04-8.02.31-11.15-.28Z"/>
          <path class="cls-56" d="M41.81,30.19c-.76,1.93.69,4.26-1.95,1.12-.73-.87-5.56-7.73-5.58-8.22-.03-.94.59-1.03,1.12-1.53,1.31-1.24,1.33-.53,1.39-.56l5.16,7.53c.79.01,1.58-.02,2.37,0l.7.84c-1.21.15-2.6-.7-3.21.84Z"/>
          <g>
            <path class="cls-50" d="M122.65,30.47c-10.08.15-20.17-.17-30.25,0-10.35.17-20.71,1.33-31.08,1.12-4.18-.09-8.41.89-4.18-2.79,16.5-.98,33.1-1.55,49.62-2.23l-2.37,2.23c2.04-.29,16.33-.04,16.87-.7.2-.25-1.26-1.56-1.12-2.09l3.9,4.46c-.46,0-.93,0-1.39,0Z"/>
            <path class="cls-31" d="M38.75,30.75c.43.17.57.66,1.12.56,2.65,3.14,1.19.81,1.95-1.12,5.06-.86,10.22-1.09,15.33-1.39-4.22,3.68,0,2.7,4.18,2.79-4.1,1.12-9.41-.35-12.68,1.39-5.09-.72-7.84,2.2-9.9-2.23Z"/>
            <path class="cls-45" d="M124.05,30.47l-3.9-4.46c-4.47-.29-8.93.37-13.38.56-16.52.68-33.12,1.25-49.62,2.23-5.11.3-10.27.53-15.33,1.39.6-1.54,1.99-.69,3.21-.84l-.7-.84c3.02.07,13.05-1.18,18.26-1.39,8.77-.35,17.56-.49,26.34-.84,10.36-.4,20.71-1.13,31.08-1.39,1.64.65,1.76,1.56,2.65,2.51.29.32.57.77.84,1.12.49.64,1.11,1.17,1.39,1.95-.28,0-.56,0-.84,0Z"/>
            <path class="cls-34" d="M106.77,26.57c4.45-.18,8.91-.85,13.38-.56-.14.53,1.32,1.85,1.12,2.09-.54.66-14.83.4-16.87.7l2.37-2.23Z"/>
          </g>
          <g>
            <path class="cls-37" d="M116.24,15.97c-16.34-1.03-65.79-.99-79.45,5.02-.07.03-.08-.68-1.39.56-.03-.61.64-1,1.12-1.67,19.68-6.38,56.85-6.11,78.05-5.02.18,0,.37,0,.56,0-.16.81.6.52,1.53.56.35.34-.27.1-.42.56Z"/>
            <path class="cls-60" d="M151.37,19.04c-.04-.56-1.85-.88-2.09-.84-.97.19-13.12,11.15-15.47,12.27-2.97.04-5.95-.06-8.92,0-.28-.78-.9-1.31-1.39-1.95,3.71-.42,7.3-.2,11.01-.84.05,0,.7.45.84.56.77-.42,1.98-1.96,2.37-2.23,1.57-1.11,2.74-2.1,4.18-3.35.05-.04.42.07,1.12-.56,1.14-1.02,1.65-1.18,1.95-2.23.28-.97.67.13.42-.84-1.26-.07-2.29.31-2.09-.56,1.81.07,4.81.93,5.02-.42-5.03-.81-10.22-1.32-15.33-1.81,2.42-.39,18.82,1.13,18.96,2.65.02.17-.33.15-.56.14Z"/>
            <path class="cls-7" d="M143.28,18.48c-9.06-.36-18.02-1.94-27.04-2.51.15-.45.77-.22.42-.56-.93-.04-1.7.26-1.53-.56,5.94.32,11.92.82,17.84,1.39,5.11.5,10.3,1,15.33,1.81-.21,1.35-3.21.49-5.02.42Z"/>
            <path class="cls-21" d="M88.92,26.29c-8.78.34-17.57.48-26.34.84-5.21.21-15.24,1.47-18.26,1.39-.79-.02-1.58.01-2.37,0l-5.16-7.53c13.65-6,63.11-6.05,79.45-5.02-.09.29.17.94-.14,1.12-.79.46-15.91.27-18.4.28-.06,0-1.05-.56-1.12-.56-3.07.01-6.1.54-8.08.56-1.95.02-4.23-.58-6.13-.56-2.27.03-4.7.49-6.97.56-2.72.08-5.61-.44-8.36-.28-2.42.15-8.26,1.44-11.71,1.12-1.81,1.13-17.36,2.65-17.42,4.04l3.21,4.04c12.26-.45,24.53-1.05,36.8-.84.21,0,.07.55.28.56,1.06.02,5.59-1.35,10.73.28Z"/>
            <path class="cls-21" d="M144.96,19.88c-3.76-.1-7.39.37-11.15.28-7.53-.19-15.04-1.21-22.58-1.39-12.86-.32-37.71.34-50.46,1.39-4.09.34-8.08,1.16-12.13,1.67-1.96.25-4.19-.81-5.99.7-.27,1.11,1.47.79,2.09.98.23.07.05.52.28.56,2.52.43,11.79-1.43,15.19-1.67.09,0,.19,0,.28,0,.03.24-.11.74.14.84.86.34,15.98-.09,18.4.56h40.28l1.67.28c.58,1.15,1.62,2.06,1.95,3.35h-.28c-.89-.95-1-1.86-2.65-2.51-10.37.27-20.72.99-31.08,1.39-5.15-1.63-9.67-.26-10.73-.28-.21,0-.07-.55-.28-.56-12.27-.21-24.54.38-36.8.84l-3.21-4.04c.06-1.39,15.61-2.91,17.42-4.04,3.45.32,9.29-.97,11.71-1.12,2.75-.17,5.64.36,8.36.28,2.27-.06,4.7-.53,6.97-.56,1.9-.03,4.19.58,6.13.56,1.98-.02,5.01-.55,8.08-.56.06,0,1.05.56,1.12.56,2.49,0,17.6.19,18.4-.28.3-.18.05-.83.14-1.12,9.02.57,17.98,2.15,27.04,2.51-.2.86.83.49,2.09.56.25.96-.14-.13-.42.84Z"/>
            <path class="cls-24" d="M137.71,26.01c-4.54-.76-9.55.93-13.8-.28l-.98,1.67c-.33-1.28-1.37-2.2-1.95-3.35-.39-.77-.87-1.91-.84-2.79,7.25.46,14.51.61,21.74,1.39-1.44,1.25-2.62,2.23-4.18,3.35Z"/>
            <path class="cls-24" d="M141.89,22.66c-7.23-.79-14.5-.93-21.74-1.39-4.09-.26-9.75.34-8.92-2.51,7.54.19,15.05,1.2,22.58,1.39l-.7.84,9.9,1.12c-.7.63-1.07.52-1.12.56Z"/>
            <path class="cls-49" d="M123.49,28.52c-.27-.35-.54-.8-.84-1.12h.28l.98-1.67c4.25,1.21,9.25-.48,13.8.28-.39.27-1.6,1.81-2.37,2.23-.14-.1-.79-.57-.84-.56-3.71.63-7.3.41-11.01.84Z"/>
            <path class="cls-34" d="M143,22.11l-9.9-1.12.7-.84c3.76.1,7.39-.38,11.15-.28-.31,1.05-.82,1.21-1.95,2.23Z"/>
            <path class="cls-34" d="M119.31,23.78c.47-.59-3.79-1.35-4.32-1.39-.09,0-.46.56-.56.56-.11,0-.45-.55-.56-.56-7.66-.24-15.48.59-23.14-.84-10.12.25-20.14.13-30.25.84-.09,0-.19,0-.28,0,1.63-.67.01-.69.56-2.23,12.75-1.06,37.59-1.72,50.46-1.39-.83,2.85,4.83,2.25,8.92,2.51-.04.88.44,2.02.84,2.79l-1.67-.28Z"/>
            <path class="cls-34" d="M60.49,22.38c10.1-.71,20.13-.59,30.25-.84,7.65,1.43,15.48.59,23.14.84.11,0,.45.55.56.56.1,0,.47-.56.56-.56.53.04,4.8.8,4.32,1.39h-40.28c-2.42-.65-17.54-.22-18.4-.56-.25-.1-.11-.6-.14-.84Z"/>
            <path class="cls-34" d="M60.21,22.38c-3.41.25-12.68,2.1-15.19,1.67-.23-.04-.05-.49-.28-.56-.62-.19-2.36.14-2.09-.98,1.8-1.51,4.04-.45,5.99-.7,4.04-.51,8.04-1.33,12.13-1.67-.54,1.54,1.08,1.56-.56,2.23Z"/>
          </g>
        </g>
      </g>
    </g>
  </g>
</svg>